<?xml version="1.0" encoding="UTF-8"?>
<svg id="Layer_2" data-name="Layer 2" xmlns="http://www.w3.org/2000/svg" xmlns:xlink="http://www.w3.org/1999/xlink" viewBox="0 0 708.61 437.06">
  <defs>
    <style>
      .cls-1 {
        fill: none;
        stroke: #231f20;
        stroke-miterlimit: 10;
      }
    </style>
  </defs>
  <g id="Layer_1-2" data-name="Layer 1">
    <g>
      <path class="cls-1" d="M418.5,224.23c2.53-71.25-53.18-131.05-124.43-133.58-73.79-2.62-135.72,55.08-138.34,128.87-2.71,76.42,57.05,140.56,133.46,143.27,79.14,2.8,145.58-59.08,148.38-138.22,2.9-81.97-61.19-150.77-143.15-153.67-84.89-3.01-156.15,63.37-159.16,148.26-3.12,87.92,65.63,161.72,153.55,164.83,91.05,3.23,167.48-67.97,170.71-159.02,3.34-94.3-70.39-173.46-164.7-176.8-97.66-3.46-179.64,72.91-183.1,170.57-3.58,101.15,75.51,186.05,176.65,189.63,104.75,3.71,192.68-78.2,196.4-182.95,3.85-108.49-80.99-199.56-189.48-203.4-112.36-3.98-206.67,83.88-210.66,196.23-4.12,116.37,86.87,214.04,203.23,218.17,120.52,4.27,221.68-89.96,225.95-210.48,0,0-2.62-12.36,13.56-16.13s181.21-.54,181.21-.54"/>
      <image width="577" height="433" xlink:href="C:\Users\Administrator\Downloads\coffee-removebg-preview.png"/>
    </g>
  </g>
</svg>