<svg xmlns="http://www.w3.org/2000/svg" viewBox="0 0 589.43 249.37"><g fill="#fff"><path d="m107.63 89.81 31.17-39.4-12.68-9.23L88.6 90.7l42.62 52.54 12.51-9.77-36.1-43.66zM66.59 140.74h16.2V0l-16.2 3.55v137.19zM196.28 84.48c-12.44 0-21.917 2.577-28.43 7.73s-9.773 12.637-9.78 22.45c0 8.667 2.437 15.44 7.31 20.32s11.593 7.333 20.16 7.36a42.826 42.826 0 0 0 15.59-3.19 57.62 57.62 0 0 0 15.41-9.05l1.94 10.65h12V78.63c0-24.487-11.39-36.737-34.17-36.75A63.389 63.389 0 0 0 180 44.11a66.02 66.02 0 0 0-15.59 6.3L169.17 62a74.48 74.48 0 0 1 12.77-4.44 53.918 53.918 0 0 1 13.29-1.78c13.18-.033 19.77 7.463 19.77 22.49v6.21h-18.72ZM215 118.21a39.912 39.912 0 0 1-5.62 4.35 39.324 39.324 0 0 1-6.75 3.46 57.697 57.697 0 0 1-7.19 2.31 28.922 28.922 0 0 1-6.93.88c-9.933 0-14.9-5.087-14.9-15.26 0-6.387 1.957-11.053 5.87-14 3.913-2.947 10.14-4.427 18.68-4.44H215v22.7ZM331.48 50.41l-12.68-9.23-37.5 49.51 42.61 52.55 12.5-9.77-36.1-43.66 31.17-39.4zM275.48 0l-16.19 3.55v137.2h16.19V0zM411.15 140.75h12V78.63c0-24.487-11.387-36.737-34.16-36.75a63.405 63.405 0 0 0-16.29 2.23 65.887 65.887 0 0 0-15.58 6.3L361.86 62a74.008 74.008 0 0 1 12.76-4.44 53.997 53.997 0 0 1 13.3-1.78c13.147 0 19.72 7.513 19.72 22.54v6.21H389c-12.453 0-21.933 2.577-28.44 7.73-6.507 5.153-9.763 12.637-9.77 22.45 0 8.667 2.433 15.44 7.3 20.32 4.867 4.88 11.59 7.333 20.17 7.36a42.857 42.857 0 0 0 15.58-3.19 57.443 57.443 0 0 0 15.41-9.05l1.9 10.6Zm-3.51-22.54a40.434 40.434 0 0 1-5.61 4.35 39.723 39.723 0 0 1-6.75 3.46 57.697 57.697 0 0 1-7.19 2.31 28.973 28.973 0 0 1-6.93.88c-9.933 0-14.9-5.087-14.9-15.26 0-6.387 1.957-11.053 5.87-14 3.913-2.947 10.14-4.427 18.68-4.44h16.83v22.7ZM488.32 142.88c13.493 0 24.027-4.333 31.6-13s11.363-21.03 11.37-37.09c0-16.327-3.82-28.87-11.46-37.63s-18.143-13.123-31.51-13.09c-13.267 0-23.747 4.377-31.44 13.13s-11.54 21.297-11.54 37.63c0 16.08 3.82 28.443 11.46 37.09 7.64 8.647 18.147 12.967 31.52 12.96Zm-19.46-78.1c4.52-6.393 11.007-9.587 19.46-9.58 8.56 0 15.103 3.193 19.63 9.58 4.527 6.387 6.787 15.737 6.78 28.05 0 12.187-2.26 21.383-6.78 27.59-4.52 6.207-11.063 9.317-19.63 9.33-8.46 0-14.947-3.11-19.46-9.33-4.513-6.22-6.777-15.417-6.79-27.59 0-12.313 2.263-21.663 6.79-28.05ZM8.4 227.82h20.76v-7.72H8.4v-11.68h26.21v-7.72H0v48.57h35.29v-7.72H8.4v-13.73zM77.6 234.2l-25.87-33.5h-7.15v48.57h8.4v-33.5l25.87 33.5H86V200.7h-8.4v33.5zM94.6 208.42h14.3v40.85h8.4v-40.85h14.29v-7.72H94.6v7.72zM149.35 227.82h20.77v-7.72h-20.77v-11.68h26.21v-7.72h-34.61v48.57h35.3v-7.72h-26.9v-13.73zM221.84 215.79c0-8.6-6.78-15.09-15.77-15.09h-20.54v48.57h8.4v-18.39h10.17L214.18 249l.13.24h9.23l-11-19.3c1.97-.87 9.3-4.82 9.3-14.15Zm-15.77 7.38h-12.14v-14.75h12.14a7.38 7.38 0 0 1 0 14.75ZM265.57 200.8h-36.99v7.72h14.3v40.85h8.4v-40.85h14.29v-7.72zM292.59 200.7h-8.09l-20.13 48.57h8.82l5.11-12.6h20.49l5.11 12.6h8.81l-20-48.29-.12-.28Zm-11.2 28.3 7.16-18 7.15 18h-14.31ZM320.28 200.7h8.4v48.57h-8.4zM374.44 234.2l-25.87-33.5h-7.14v48.57h8.4v-33.5l25.87 33.5h7.15V200.7h-8.41v33.5zM419.82 223.57l-18.15-22.87h-7.15v48.57h8.4v-33.88l16.9 21.22 16.91-21.22v33.88h8.4V200.7h-7.14l-18.17 22.87zM465.3 227.82h20.77v-7.72H465.3v-11.68h26.22v-7.72H456.9v48.57h35.29v-7.72H465.3v-13.73zM535.86 234.2l-25.87-33.5h-7.15v48.57h8.4v-33.5l25.87 33.5h7.15V200.7h-8.4v33.5zM552.44 200.7v7.72h14.3v40.85h8.4v-40.85h14.29v-7.72h-36.99z"/></g></svg>