<svg xmlns="http://www.w3.org/2000/svg" xml:space="preserve" width="512" height="166.013" viewBox="0 0 512 166.013"><path d="M80.698 487.065 43.16 535.18l36.18 44.504H53.85l-34.442-44.05v44.05H0v-92.62h19.408v47.62l33.755-47.62zM218.29 543.452c5.628 0 29.59-3.68 29.59-27.948 0-25.67-24.174-28.44-24.174-28.44h-56.525v15.01l45.478-.03c13.187 0 13.057 12.817 13.057 12.817 0 14.05-15.583 13.48-15.583 13.48H192.72c-7.995 0-28.6 2.94-28.6 24.63 0 26.07 25.54 26.714 25.54 26.714h51.75v-14.808l-42.483-.04c-13.725 0-13.508-10.854-13.508-10.854s.123-10.584 12.013-10.584zM123.574 502.14H100.77v26.045l28.139-.011s14.215-.534 14.215-12.858c0-12.314-10.658-13.176-19.549-13.176M100.77 564.65h25.03s13.604.621 13.604-10.888c0-9.905-8.556-10.554-11.321-10.748h-27.313zm36.349-77.587c13.67 0 26.095 10.198 26.095 25.87 0 17.89-12.977 23.464-12.977 23.464s10.309 3.607 9.335 19.658c-1.397 23.253-27.173 23.627-27.173 23.627H82.404v-92.577s43.202-.042 54.714-.042M285.923 506.45h.005c15.06 0 52.218 13.64 52.218 34.223 0 7.463-2.819 12.942-8.153 15.846-5.252 2.857-12.15 2.6-17.168-.644-4.181-2.7-6.258-6.363-6.958-7.812-2.497-5.173-8.715-7.342-13.886-4.844-5.172 2.496-7.341 8.713-4.844 13.885 1.816 3.764 6.102 10.877 14.398 16.238 11.4 7.37 26.472 7.937 38.403 1.443 12.078-6.574 19.007-19.008 19.007-34.112 0-12.697-6.276-24.525-17.924-34.222h37.03a62.011 62.011 0 0 1 5.95 26.57c0 34.382-27.873 62.255-62.255 62.255-34.382 0-62.255-27.873-62.255-62.254a62.01 62.01 0 0 1 5.949-26.571zM285.946 485.653h-4.574c10.87-9.276 24.963-14.886 40.374-14.886 15.41 0 29.502 5.61 40.374 14.886z" style="fill:#fff;fill-opacity:1;fill-rule:nonzero;stroke:none;stroke-width:1.56501" transform="matrix(1.33333 0 0 -1.33333 0 793.701)"/></svg>