<svg xmlns="http://www.w3.org/2000/svg" width="2483pt" height="192pt" viewBox="0 0 2483 192"><path d="M33.543 174.266v9.785c0 4.89-2.445 6.726-8.559 6.726-6.113 0-8.558-1.836-8.558-6.726v-9.785l-1.223-1.223h7.336l-1.223 1.223v9.785c0 2.445 1.223 3.058 3.668 3.058 2.446 0 3.668-1.222 3.668-3.058v-9.785l-1.222-1.223h7.336ZM62.273 174.266v16.511h-3.668l-9.777-10.394v9.172l1.223 1.222h-6.114l.61-1.222v-14.676l-1.223-1.223h5.504l9.168 10.395v-9.172l-1.223-1.223h6.114ZM73.277 190.777l1.223-1.222v-14.676l-1.223-1.223h7.336l-1.222 1.223v14.676l1.222 1.222ZM99.566 190.777h-3.668l-7.949-17.734h7.336l-1.222 1.223 4.28 9.785 4.278-9.785-1.223-1.223h6.114ZM114.848 190.777l1.222-1.222v-14.676l-1.222-1.223h16.507v4.89l-1.222-1.831h-9.172v3.668h5.504l1.222-1.223v5.504l-1.222-1.223h-5.504v3.668h9.172l1.222-1.222v4.89ZM153.36 179.16a2.81 2.81 0 0 1-3.055 2.445h-3.059v-4.28h4.281c.61-.61 1.832 0 1.832 1.835Zm6.113 11.617-4.891-6.726a6.543 6.543 0 0 0 4.281-5.504c0-3.055-1.836-5.504-6.726-5.504h-11.004l1.222 1.223v15.289l-1.222 1.222h7.336l-1.223-1.222v-4.89h2.445l3.668 4.89-1.222 1.222ZM177.203 191.387a18.761 18.761 0 0 1-6.726-1.223L169.254 192v-6.727a16.437 16.437 0 0 0 7.95 2.446c.608 0 2.444 0 2.444-1.223s-2.445-1.832-4.89-2.445c-3.668-1.223-5.504-2.446-5.504-6.113 0-2.446 1.836-4.895 7.95-4.895 1.894.047 3.765.465 5.5 1.223l1.222-1.223v6.117a18.324 18.324 0 0 0-7.336-1.836c-1.223 0-2.445.613-2.445 1.223 0 .613 3.058 1.836 4.89 2.445 3.059 1.223 5.504 2.45 5.504 5.504 0 3.059-2.445 4.89-7.336 4.89ZM205.324 184.664h-6.113l3.055-6.117Zm8.559 6.113-8.559-17.734h-6.113l.61 1.223-7.946 16.511h6.723l-1.223-1.222.613-1.836h8.559l.61 1.836-1.223 1.222ZM221.219 190.777l1.219-1.222v-14.676l-1.22-1.223h7.333l-1.223 1.223v12.84h8.559l1.222-1.223v4.89h-15.89ZM276.848 190.777l1.222-1.222v-8.563l-4.89 9.785h-2.446l-5.504-9.785v8.563l1.223 1.222h-6.113l1.223-1.222v-14.676l-1.223-1.223h6.113l5.504 11.008 5.5-11.008h6.113l-.61.61v15.289l1.224 1.222ZM311.691 174.266v9.785c0 4.89-2.445 6.726-8.558 6.726-6.113 0-8.559-1.836-8.559-6.726v-9.785l-1.222-1.223h7.336l-1.223 1.223v9.785c0 2.445 1.223 3.058 3.668 3.058 2.445 0 3.668-1.222 3.668-3.058v-9.785l-1.223-1.223h7.336ZM329.418 191.387a18.74 18.74 0 0 1-6.723-1.223L321.473 192v-6.727a16.423 16.423 0 0 0 7.945 2.446c.613 0 2.445 0 2.445-1.223s-2.445-1.832-4.89-2.445c-3.668-1.223-5.5-2.446-5.5-6.113 0-2.446 1.832-4.895 7.945-4.895 2.086.113 4.144.523 6.113 1.223l1.223-1.223v6.117a18.324 18.324 0 0 0-7.336-1.836c-1.223 0-2.445.613-2.445 1.223 0 .613 3.058 1.836 4.89 2.445 3.059 1.223 5.504 2.45 5.504 5.504 0 3.059-2.445 4.89-7.949 4.89ZM346.535 190.777l1.223-1.222v-14.676l-1.223-1.223h7.336l-1.223 1.223v14.676l1.223 1.222ZM372.824 191.387c-5.504 0-10.394-2.446-10.394-9.172a9.35 9.35 0 0 1 3.164-6.887 9.349 9.349 0 0 1 7.23-2.285c1.895.047 3.762.465 5.5 1.223l1.223-1.223v6.117a10.344 10.344 0 0 0-6.113-1.836c-3.668 0-4.891 2.446-4.891 5.504a5.13 5.13 0 0 0 1.492 4.012 5.13 5.13 0 0 0 4.012 1.492c2.18.063 4.324-.582 6.113-1.836v3.059a25.764 25.764 0 0 1-7.336 1.832ZM415.613 182.215h6.114v7.34a15.26 15.26 0 0 1-7.946 1.832c-5.504 0-10.394-2.446-10.394-9.172a9.304 9.304 0 0 1 3.144-6.91 9.303 9.303 0 0 1 7.25-2.262 13.196 13.196 0 0 1 6.114 1.223l1.222-1.223v6.117a12.196 12.196 0 0 0-6.726-1.836c-3.055 0-4.891 1.836-4.891 5.504a5.013 5.013 0 0 0 4.89 5.504h2.446v-4.89ZM443.125 179.16a2.813 2.813 0 0 1-3.059 2.445h-3.054v-4.28h4.277c.613-.61 1.836 0 1.836 1.835Zm6.113 11.617-4.89-6.726a6.546 6.546 0 0 0 4.277-5.504c0-3.055-1.832-5.504-6.723-5.504h-11.004l1.223 1.223v15.289l-1.223 1.222h7.336l-1.222-1.222v-4.89h2.445l3.668 4.89-1.223 1.222ZM471.855 182.215c0 3.058-1.222 5.504-4.89 5.504a5.017 5.017 0 0 1-3.649-1.68 5.015 5.015 0 0 1-1.242-3.824c0-3.055 1.223-5.5 4.89-5.5 3.669 0 4.891 1.832 4.891 5.5Zm5.5 0c0-6.723-4.886-9.172-10.39-9.172-5.5 0-10.39 2.45-10.39 9.172a10.45 10.45 0 0 0 20.78 0ZM504.254 174.266v9.785c0 4.89-2.445 6.726-8.559 6.726-6.113 0-8.558-1.836-8.558-6.726v-9.785l-1.223-1.223h7.336l-1.223 1.223v9.785c0 2.445 1.223 3.058 3.668 3.058 2.446 0 3.668-1.222 3.668-3.058v-9.785l-1.222-1.223h7.336ZM526.262 179.16c0 2.445-1.223 3.055-3.668 3.055h-2.446v-5.5h3.059c1.832 0 3.055.61 3.055 2.445Zm5.504 0c0-4.894-4.891-6.117-8.559-6.117h-9.781l1.222 1.223v15.289l-1.222 1.222h7.945l-1.223-1.222v-3.668h3.059c4.277 0 8.559-1.223 8.559-6.727Zm0 0" style="stroke:none;fill-rule:nonzero;fill:#000;fill-opacity:1"/><path d="M338.59 91.11c-9.102 28.878-35.75 48.62-66.024 48.917-30.328.465-57.28-19.257-66.02-48.308 10.829 26.804 37.126 44.097 66.02 43.414 29.059.62 55.418-16.957 66.024-44.024ZM206.547 48.917C215.715 21.402 237.109 0 272.567 0c30.73-.09 57.855 20.07 66.632 49.527-10.656-27.379-37.262-45.203-66.633-44.636-29.058-.618-55.418 16.957-66.02 44.027Zm0 0" style="stroke:none;fill-rule:evenodd;fill:#000;fill-opacity:1"/><path d="M273.79 42.191c.612-.613 1.835 0 2.444 0 .614 0 1.223 1.836 2.446 1.223 1.222-.613 1.836 1.836 4.28 1.223 2.446-.61-.612.613-.612.613a2.908 2.908 0 0 0-2.446 0c-.609 0 0 0-.609-.613-.613-.61-1.223 0-3.668-1.836-.613-1.223-2.445 0-1.836-.61Zm12.226 48.305c1.222.613 2.445 1.223 2.445 3.059 1.223 3.668-.61.61-.61 5.504 0 4.89-1.222 4.277-1.222 4.277-.063 3.3-1.129 6.5-3.059 9.172a2.876 2.876 0 0 0-.61 3.672 13.902 13.902 0 0 0-1.835 4.277 3.302 3.302 0 0 0 3.059 3.059c1.222-.61-2.446-.61 1.222-2.446 1.832-.613 0-1.836 0-1.836s2.446 0 4.278-4.277c2.445.61 1.836-1.223 7.336-2.45 1.222-.609 1.835-.609 1.835-1.831 0-1.223 1.832 0 7.336-5.504 4.278-4.281 2.442-5.504 5.5-6.727 3.055-1.222 3.668 0 4.278-1.222a8.722 8.722 0 0 0 2.445-4.891l.613-1.223ZM256.062 45.25a12.83 12.83 0 0 1 1.223-9.172 6.108 6.108 0 0 1 7.336-1.836c3.055-2.445 3.668 0 6.723-1.222 3.058-1.223 1.836 4.28 4.89 5.503 1.223-3.671-3.054-6.726-.609-8.562a14.749 14.749 0 0 0 4.89-3.668c.61-1.836 1.223-3.668 2.446-3.668a2.447 2.447 0 0 0 1.832-3.059 4.767 4.767 0 0 0 4.281-1.222c-1.222-.61-3.668-1.223-3.058-3.059.613-1.832 5.504 1.836 6.726-1.223-3.058-1.222-5.504-3.667-7.336-4.277-1.222 1.223-1.836.61-3.668-.613-1.836-1.223-3.058 0-4.281-1.223-1.223 2.446.613 2.446 1.223 3.059 1.836 1.832-1.832-1.836-1.223 3.055 0 1.222-1.832 1.222-3.055-1.223-.613-1.223-6.113-1.223-6.726-2.445a19.864 19.864 0 0 1 17.117-5.504c-14.059-5.504-33.621.613-33.621 2.445-1.836 1.223-1.223 2.45-2.445 3.059-1.223.613-3.668 5.503-3.668 5.503s1.222.61-2.446 4.282a24.392 24.392 0 0 0-3.668 7.336 10.91 10.91 0 0 1 1.223 6.726c0 3.059-.613.61.61 2.446 1.222 1.835 1.222 5.503 1.835 3.667.61-3.054-1.836-6.113-1.222-9.171 0 .613 1.222-1.223 1.222 0a31.297 31.297 0 0 0 4.89 11.007s-1.835 1.836 0 1.836Zm0 0" style="stroke:none;fill-rule:evenodd;fill:#000;fill-opacity:1"/><path d="M153.36 55.645h-11.005l1.836 1.832v14.066c0 3.055-1.836 4.277-5.504 4.277-3.664 0-5.5-1.222-5.5-4.277V57.477l1.836-1.832H124.02l1.832 1.832v14.066c0 6.723 4.28 9.781 12.835 9.781 8.56 0 12.84-2.445 12.84-9.781V57.477ZM191.262 55.645h-9.782l1.836 1.832V70.32l-12.84-14.675h-8.558l1.836 1.832v21.402l-1.836 2.445h9.172l-1.836-2.445v-12.84l14.062 15.285h6.114V57.477ZM212.047 81.324l-1.832-2.445V57.477l1.832-1.832h-11.004l1.836 1.832v21.402l-1.836 2.445ZM248.113 55.645h-9.168l1.832 1.832-6.722 14.066-6.114-14.066 1.832-1.832h-11l12.223 25.68h4.89ZM279.293 81.324v-7.336l-1.836 1.832h-13.45v-4.89h8.56l1.835 1.222v-7.949l-1.836 1.836h-8.558v-4.89h13.449l1.836 1.222v-6.726H254.84l1.832 1.832v21.402l-1.832 2.445Zm0 0" style="stroke:none;fill-rule:nonzero;fill:#000;fill-opacity:1"/><path d="m315.969 81.324-6.723-9.781a8.437 8.437 0 0 0 6.113-7.95c0-4.28-2.445-7.948-9.78-7.948h-16.505l1.832 1.832v21.402l-1.832 2.445h11.004l-1.836-1.832v-7.34h3.059l4.89 7.34-1.836 1.832Zm-8.559-17.73c0 1.832-1.832 3.054-4.277 3.054h-4.89v-6.113h6.112c1.223.613 3.055 1.223 3.055 3.059Zm0 0" style="stroke:none;fill-rule:evenodd;fill:#000;fill-opacity:1"/><path d="M348.98 73.375c0-4.281-3.054-6.113-7.945-7.95-3.058-1.222-7.336-1.831-7.336-3.667 0-1.836 1.223-1.836 3.055-1.836a27.242 27.242 0 0 1 11.004 3.058v-8.558l-1.832 1.832a42.792 42.792 0 0 0-8.559-1.832c-8.558 0-11.617 3.668-11.617 7.336 0 4.89 3.059 6.726 7.95 8.562 3.667 1.223 7.335 1.223 7.335 3.668 0 2.446-1.836 1.832-3.058 1.832a32.35 32.35 0 0 1-12.227-3.668v9.172l1.836-2.445a39.838 39.838 0 0 0 10.39 1.836c7.337 1.222 11.004-2.45 11.004-7.34Zm0 0" style="stroke:none;fill-rule:nonzero;fill:#000;fill-opacity:1"/><path d="m387.496 81.324-12.84-25.68h-8.558l1.222 1.833-11.613 23.847h9.781l-1.836-1.832 1.223-2.449h12.227l1.222 2.45-1.832 1.831Zm-12.226-9.172h-8.56l4.278-9.172Zm0 0" style="stroke:none;fill-rule:evenodd;fill:#000;fill-opacity:1"/><path d="M418.059 81.324v-7.336l-1.832 1.832H404V57.477l1.223-1.832h-10.395l1.223 1.832v21.402l-1.223 2.445ZM411.336 59.313a3.057 3.057 0 1 0 3.055-3.06c-1.832-.608-3.055 1.224-3.055 3.06Zm-.613 0a3.668 3.668 0 1 1 3.668 3.667c-1.832-.609-3.668-1.832-3.668-3.667Zm0 0" style="stroke:none;fill-rule:nonzero;fill:#000;fill-opacity:1"/><path d="M415.613 57.477c-.61 0-.61-.61-1.222-.61-1.012 0-1.832.82-1.832 1.832 0 1.016.82 1.836 1.832 1.836.613 0 1.222 0 1.222-.613v-.61c-.61.61-.61.61-1.222.61-.61 0-1.223-.61-1.223-1.832a1.344 1.344 0 0 1 1.223-1.223 1.9 1.9 0 0 0 1.222.61Zm0 0" style="stroke:none;fill-rule:evenodd;fill:#000;fill-opacity:1"/><path d="M704.766 70.32v40.965c0 20.18-11.004 27.516-36.067 27.516-25.062 0-36.066-7.95-36.066-27.516V70.32l-4.281-5.504h30.566l-4.281 5.504v39.743c0 9.171 6.113 12.843 14.672 12.843 8.558 0 14.671-3.672 14.671-12.844V69.708l-4.277-5.504h30.567ZM808.691 70.32v67.258h-16.507l-39.125-42.8v37.3l4.28 5.5h-25.675l4.277-5.5V70.32l-4.277-5.504h23.23l36.68 42.192V70.32l-4.281-5.504h25.676ZM839.867 136.969l4.278-5.504V70.32l-4.278-5.504h30.567l-4.282 5.504v61.758l4.282 5.5ZM938.898 136.969h-15.28l-33.622-72.153h30.563l-4.278 5.504 17.727 39.743 18.34-39.743-4.278-5.504h25.676ZM993.918 136.969l4.277-5.504V70.32l-4.277-5.504h68.469v19.567l-5.504-4.281h-37.29v14.062h23.231l5.5-4.277v23.847l-5.5-4.28h-23.23v12.839h37.289l5.504-4.281v19.566h-68.469ZM1130.852 136.969l4.28-5.504-14.062-20.79h-9.168v20.79l4.278 5.504h-30.567l4.282-5.504V70.32l-4.282-5.504h45.239c20.785 0 28.12 9.782 28.12 22.012a24.094 24.094 0 0 1-16.503 22.012l19.558 28.738Zm-1.832-57.477h-16.508v18.344h14.062c6.723 0 12.227-4.281 12.227-9.172a9.11 9.11 0 0 0-9.781-9.172ZM1217.66 138.8a83.924 83.924 0 0 1-28.734-6.113l-5.5 6.114v-26.903a65.19 65.19 0 0 0 33.62 10.395c3.06 0 9.173-.613 9.173-5.504 0-6.113-9.782-6.113-20.176-9.781-14.059-4.895-22.617-11.008-22.617-24.461 0-9.781 7.945-20.79 32.398-20.79a75.192 75.192 0 0 1 23.844 4.891l5.5-5.5v24.457a78.224 78.224 0 0 0-30.566-7.949c-6.114 0-9.168 1.836-9.168 4.89 0 5.505 12.226 7.95 20.785 10.395 13.449 4.282 22.617 11.008 22.617 22.016 0 14.672-9.781 23.844-31.176 23.844ZM1325.25 136.969l4.277-5.504-3.664-7.336h-34.234l-3.668 7.336 4.277 5.504h-26.898l32.402-67.262-2.445-5.504h24.453l35.453 72.152h-29.953Zm-16.504-51.977-12.226 25.684h23.84ZM1374.156 136.969l4.278-5.504V70.32l-4.278-5.504h30.567l-4.282 5.504v51.973h34.844l5.504-4.281v19.566ZM1576.5 136.969l4.281-5.504V96.613l-18.953 40.356h-10.39L1529.43 96v35.465l4.277 5.504h-25.062l4.277-5.504V70.32l-4.277-5.504h25.675l23.84 44.024 21.399-44.024h26.285l-4.282 5.504v61.758l4.282 5.5ZM1707.32 70.32v40.965c0 20.18-11.004 27.516-36.066 27.516-25.063 0-36.066-7.95-36.066-27.516V70.32l-4.282-5.504h30.567l-4.278 5.504v39.743c0 9.171 6.114 12.843 14.668 12.843 8.559 0 14.672-3.672 14.672-12.844V69.708l-4.277-5.504h30.566ZM1768.453 138.8a83.883 83.883 0 0 1-28.73-6.113l-5.504 6.114v-26.903a65.202 65.202 0 0 0 33.62 10.395c3.06 0 9.173-.613 9.173-5.504 0-6.113-9.782-6.113-20.176-9.781-14.059-4.895-22.617-11.008-22.617-24.461 0-9.781 7.949-20.79 32.398-20.79a75.192 75.192 0 0 1 23.844 4.891l5.5-5.5v24.457a78.224 78.224 0 0 0-30.566-7.949c-6.114 0-9.168 1.836-9.168 4.89 0 5.505 12.226 7.95 20.785 10.395 13.449 4.282 22.617 11.008 22.617 22.016 0 14.672-9.781 23.844-31.176 23.844ZM1823.473 136.969l4.277-5.504V70.32l-4.277-5.504h30.562l-4.277 5.504v61.758l4.277 5.5ZM1920.059 138.8c-22.008 0-42.18-11.003-42.18-37.91 0-21.398 15.281-37.296 42.793-37.296a75.919 75.919 0 0 1 22.617 3.668l4.89-4.89v23.843a47.206 47.206 0 0 0-26.288-7.336 19.98 19.98 0 0 0-15.844 6 20 20 0 0 0-5.55 16.012 20.858 20.858 0 0 0 6.07 15.941 20.858 20.858 0 0 0 15.937 6.074 46.333 46.333 0 0 0 25.676-7.949v17.121a65.408 65.408 0 0 1-28.121 6.723ZM2071.664 70.32v40.356c0 17.12-10.39 28.125-35.457 28.125a57.13 57.13 0 0 1-15.281-2.446v-18.953l5.5 4.891a25.252 25.252 0 0 0 9.781 1.223c9.172 0 14.672-4.282 14.672-12.23V69.706l-4.277-5.504h30.566ZM2149.914 136.969l4.277-5.504-3.668-7.336h-34.234l-3.668 7.336 4.281 5.504h-26.898l32.398-67.262-2.445-5.504h24.453l35.457 72.152h-29.953Zm-16.508-51.977-12.226 25.684h23.843ZM2237.332 116.18h-12.84v15.898l4.281 5.5h-30.566l4.277-5.5V70.32l-4.277-5.504h39.125c14.059 0 34.23 4.278 34.23 23.848.614 22.621-17.113 27.516-34.23 27.516Zm-.613-36.688h-12.227v22.012h10.395c9.781 0 15.281-2.445 15.281-11.617 0-7.95-5.5-10.395-13.45-10.395ZM2338.2 136.969l4.277-5.504-3.668-7.336h-34.235l-3.668 7.336 4.282 5.504h-26.899l32.398-67.262-2.445-5.504h24.453l35.457 72.152H2338.2Zm-16.509-51.977-12.226 25.684h23.844ZM2463.516 70.32v67.258h-16.504l-39.125-42.8v37.3l4.281 5.5h-25.676l4.278-5.5V70.32l-4.278-5.504h23.23l36.676 42.192V70.32l-4.277-5.504h25.676Zm0 0" style="stroke:none;fill-rule:nonzero;fill:#000;fill-opacity:1"/></svg>