<svg xmlns="http://www.w3.org/2000/svg" width="500" height="500" viewBox="0 0 500 500"><path d="M437.5 500h-375C27.988 499.988.013 472.013 0 437.5v-375C.013 27.988 27.988.013 62.5 0h375c34.513.013 62.488 27.988 62.5 62.5v375c-.012 34.513-27.987 62.488-62.5 62.5Z" style="fill:#fff;transform-origin:250px 250px"/><path d="M278.575 227.043 390.268 100h-26.464l-97.027 110.287L189.337 100H100l117.13 166.788L100 400h26.464l102.4-116.494L310.664 400H400zm-36.259 41.209-11.886-16.619-94.422-132.111h40.655l76.224 106.657 11.836 16.62 99.069 138.63h-40.655zm0 0"/></svg>