<svg xmlns="http://www.w3.org/2000/svg" xml:space="preserve" x="0px" y="0px" style="enable-background:new 0 0 340.2 111.5" viewBox="0 0 340.2 111.5"><path fill="#005AAA" d="M290.1 0c-19.2 0-34.7 15.5-34.7 34.7v35.8h11.7V32.3c0-9.7 7.3-17.8 17.2-20.1v58.4H296V12.1c9.9 2.3 17.2 10.5 17.2 20.1v38.2h11.7V34.7C324.8 15.5 309.3 0 290.1 0z" class="st0"/><path fill="#37B9DC" d="M210.4 0c-19.2 0-34.7 15.5-34.7 34.7v35.8h11.7V51h46v19.5h11.7V34.7c0-19.2-15.6-34.7-34.7-34.7zm-23 39.3v-7c0-11.5 10.3-20.8 23-20.8s23 9.3 23 20.8v7h-46z" class="st1"/><path fill="#AAC837" d="M95.2 70H131c19.2 0 34.7-15.5 34.7-34.7C165.7 16.1 150.2.6 131 .6H95.2V70zm59.1-34.7c0 12.7-9.3 23-20.8 23H107v-46h26.5c11.4-.1 20.8 10.2 20.8 23z" class="st2"/><path fill="#E678AA" d="M15.3 20.2v30.1C15.3 61.2 24.1 70 35 70h50.9V58.3H38.2c-6.8 0-11.4-3.4-11.4-9v-8.2h41.5V29.4H26.8v-8.2c0-5.6 4.5-9 11.4-9h47.7V.6H35C24.1.6 15.3 9.3 15.3 20.2z" class="st3"/><g fill="#737373"><path d="M10.4 111.5v-2.1H2.2v-6.8h7.5v-2.2H2.2v-6.2h8.2V92H0v19.5zM93.6 111.5v-2.1h-8.3v-6.8h7.5v-2.2h-7.5v-6.2h8.3V92H83.2v19.5zM281.3 111.5v-2.1h-8.2v-6.8h7.5v-2.2h-7.5v-6.2h8.2V92h-10.4v19.5zM109.7 111.5h2.2v-8.6h2.6l5.6 8.6h2.6l-5.8-8.8c2.2-.6 4.1-3.1 4.1-5.3 0-2.7-1.6-4.7-3.7-5.3-.9-.3-2.4-.2-3.3-.2-3.2 0-4.3.1-4.3.1v19.5zm2.2-10.5v-7.1s.5-.2 2.4-.2h.8c2 0 3.6 1.7 3.6 3.6 0 2-1.6 3.6-3.6 3.6h-3.2zM40.1 92h-2.2v14.9L27.4 92H26v19.5h2.1V96.7l10.4 14.8h1.6zM222.7 92h-2.1v14.9L210.1 92h-1.5v19.5h2.2V96.7l10.3 14.8h1.6zM253.2 96.6v14.9h2.2V92h-2.1l-6.6 11.5L240 92h-2v19.5h2.2V96.6l6 10.5h.9zM69 92v2.2h-6.3v17.3h-2.1V94.2h-6.3V92zM313 92h-2.1v14.9L300.4 92h-1.5v19.5h2.2V96.7l10.3 14.8h1.6zM340.2 92v2.2h-6.3v17.3h-2.2V94.2h-6.2V92zM149.4 92v2.2h-6.3v17.3h-2.2V94.2h-6.2V92zM191 92h2.2v19.5H191zM169.4 91.7h-1.3l-7 19.8h2.2l1.9-5.2h7.3l1.9 5.2h2.2l-7.2-19.8zm-3.6 12.4 2.9-8.2 2.9 8.2h-5.8z" class="st4"/></g></svg>