<svg xmlns="http://www.w3.org/2000/svg" width="500" height="500" viewBox="0 0 500 500"><path d="M437.5 500h-375C27.988 499.988.013 472.013 0 437.5v-375C.013 27.988 27.988.013 62.5 0h375c34.513.013 62.488 27.988 62.5 62.5v375c-.012 34.513-27.987 62.488-62.5 62.5Z" style="transform-origin:250px 250px"/><path d="M14.258 10.152 23.176 0h-2.113l-7.747 8.813L7.133 0H0l9.352 13.328L0 23.973h2.113l8.176-9.309 6.531 9.309h7.133zm-2.895 3.293-.949-1.328L2.875 1.56h3.246l6.086 8.523.945 1.328 7.91 11.078h-3.246zm0 0" style="fill:#fff" transform="matrix(12.52453 0 0 12.51408 100 100)"/></svg>