<svg xmlns="http://www.w3.org/2000/svg" width="78.802002mm" height="13.811mm" viewBox="0 0 78.802002 13.811"><path d="m22.916 8.838.002-3.847h-4.132v1.793h2.204c.007 0 .012.005.012.012v1.386c0 .002 0 .005-.003.008-.022.027-.08.075-.085.079-.515.402-1.178.615-1.915.615-1.744 0-3.163-1.197-3.163-3.09 0-1.922 1.448-3.164 3.163-3.164.92 0 1.794.387 2.374 1.031l1.19-1.455-.013-.012a5.108 5.108 0 0 0-2.806-1.41 7.788 7.788 0 0 0-.884-.049c-.734 0-1.418.133-2.03.395a4.942 4.942 0 0 0-2.66 2.667c-.253.6-.382 1.254-.382 1.941v.028c0 .714.126 1.384.375 1.99a4.682 4.682 0 0 0 1.043 1.575 4.81 4.81 0 0 0 1.602 1.037c.62.247 1.315.373 2.067.373.879 0 1.62-.169 2.305-.466.479-.21 1.33-.752 1.736-1.436M32.762.744h-1.96v9.879h1.96zM47.226 9.13a1.436 1.436 0 0 1 0-2.871 1.436 1.436 0 0 1 0 2.87m2.485-3.681c-.56-.618-1.356-.946-2.301-.946-.802 0-1.318.313-1.68.518v-.592h-1.89v9.383h1.886s-.001-3.432.003-3.416c0 .005-.005-.002 0 0 .317.193.793.443 1.556.443 2.075 0 3.222-1.622 3.222-3.182 0-.857-.283-1.64-.796-2.208M40.908 4.428v3.266c0 .774-.303 1.378-1.016 1.378-.712 0-1.09-.498-1.09-1.428V4.428h-1.806v3.33c0 .89.206 1.614.59 2.087.451.554 1.2.86 1.745.86.596 0 1.184-.173 1.58-.572v.468h1.8V4.428ZM35.873.744h-1.96v9.879h1.96zM11.415 9.699a1.719 1.719 0 1 1-3.438-.008 1.719 1.719 0 0 1 3.438.008" style="fill:#fff;fill-opacity:1;fill-rule:nonzero;stroke:none;stroke-width:.352778"/><path d="M0 0v11.235h7.379V8.61H2.625V2.625H8.61V7.38h2.624V0ZM26.496 9.373c-.558 0-.998-.316-.998-.725 0-.684.969-.766 1.69-.766l.81.002c.007 0 .012.005.012.011v.297c0 .578-.733 1.181-1.514 1.181m.107-5.356c-1.105 0-2.371.798-2.77 1.175l1.045 1.234c.416-.363.991-.816 1.74-.816.588 0 1.39.074 1.39.868a.02.02 0 0 1-.001.01.024.024 0 0 1-.01.002H27.775l-.234-.001c-.355 0-.774.007-1.194.056l-.013.001-.008.001c-.742.09-1.332.292-1.75.604-.512.38-.771.926-.771 1.62 0 1.15.864 1.919 2.201 1.96.09.003.17.005.249.005.675 0 1.182-.164 1.736-.591.004-.003.014-.013.019-.014v.493h1.72V7.36c0-2.61-1.242-3.343-3.127-3.343M74.841 9.876v-.493h2.954v.492zm2.955-1.821v.468H74.84v-.467h-.967v2.695h4.886V8.054ZM77.807 4.049v1.318h-1.19V6.305h1.188l.002 1.287h.995V4.049ZM64.974 6.52c.128-.71.154-1.39.149-1.558v-.816h-4.899v1.002h3.887c0 .136-.005.815-.171 1.373h-4.473v.962h2.793v.753h-2.095v.968h4.13v1.554h1.033V8.236h-2.041l-.001-.754h2.806v-.961zM54.374 9.765v-.989h-.996v1.978h4.944v-.989ZM58.24 6.055V4.048h-1.008v4.89h1.008V7.015h.84v-.96ZM53.803 7.08c0-.352.365-.64.816-.64.45 0 .816.288.816.64 0 .351-.366.637-.816.637-.45 0-.816-.286-.816-.637m2.576 0c0-.868-.79-1.573-1.76-1.573-.971 0-1.76.705-1.76 1.573 0 .866.789 1.57 1.76 1.57.97 0 1.76-.704 1.76-1.57M68.363 9.966v-.341c0-.002.002-.004.004-.005h3.92v-1.9h-4.849v.78h3.905l.004.005v.335h-3.892v1.914h4.868v-.78h-3.948c-.006-.001-.01-.005-.011-.008M66.694 4.337v.916h1.66c-.01.133-.054 1.073-1.614 1.686l-.008.003.31.79.003.008.007-.003c.935-.367 1.6-.863 1.968-1.531.267-.487.291-.945.291-1.01v-.86zM71.365 4.045v1.262h-.719V4.045h-.94V7.45h.94V6.225h.72V7.45h.94V4.044Z" style="fill:#fff;fill-opacity:1;fill-rule:nonzero;stroke:none;stroke-width:.352778"/><path d="m76.752 6.766-.001-.008h-.008c-1.031.15-1.998.173-2.483.173h-.044v-.595h1.998v-2.08h-2.94v.852h2.012v.428h-2.013v2.289l.642-.001c.002 0 .133.006.367.006.498 0 1.494-.024 2.583-.181l.009-.001zM56.635 4.545h-1.522V3.92h-.973v.624H52.6V5.4h4.035z" style="fill:#fff;fill-opacity:1;fill-rule:nonzero;stroke:none;stroke-width:.352778"/></svg>