<svg xmlns="http://www.w3.org/2000/svg" viewBox="0 0 589.43 249.37"><path d="m107.63 89.81 31.17-39.4-12.68-9.23L88.6 90.7l42.62 52.54 12.51-9.77-36.1-43.66zM66.59 140.74h16.2V0l-16.2 3.55v137.19zM196.28 84.48q-18.66 0-28.43 7.73t-9.78 22.45q0 13 7.31 20.32t20.16 7.36a42.83 42.83 0 0 0 15.59-3.19 57.6 57.6 0 0 0 15.41-9.05l1.94 10.65h12V78.63q0-36.73-34.17-36.75A63.37 63.37 0 0 0 180 44.11a66 66 0 0 0-15.59 6.3L169.17 62a74.43 74.43 0 0 1 12.77-4.44 53.9 53.9 0 0 1 13.29-1.78Q215 55.73 215 78.27v6.21ZM215 118.21a39.93 39.93 0 0 1-5.62 4.35 39.37 39.37 0 0 1-6.75 3.46 57.63 57.63 0 0 1-7.19 2.31 28.93 28.93 0 0 1-6.93.88q-14.9 0-14.9-15.26 0-9.58 5.87-14t18.68-4.44H215ZM331.48 50.41l-12.68-9.23-37.5 49.51 42.61 52.55 12.5-9.77-36.1-43.66 31.17-39.4zM275.48 0l-16.19 3.55v137.2h16.19V0zM411.15 140.75h12V78.63q0-36.73-34.16-36.75a63.38 63.38 0 0 0-16.29 2.23 65.89 65.89 0 0 0-15.58 6.3L361.86 62a74 74 0 0 1 12.76-4.44 54 54 0 0 1 13.3-1.78q19.72 0 19.72 22.54v6.21H389q-18.68 0-28.44 7.73t-9.77 22.45q0 13 7.3 20.32t20.17 7.36a42.86 42.86 0 0 0 15.58-3.19 57.45 57.45 0 0 0 15.41-9.05Zm-3.51-22.54a40.41 40.41 0 0 1-5.61 4.35 39.74 39.74 0 0 1-6.75 3.46 57.63 57.63 0 0 1-7.19 2.31 29 29 0 0 1-6.93.88q-14.9 0-14.9-15.26 0-9.58 5.87-14t18.68-4.44h16.83ZM488.32 142.88q20.24 0 31.6-13t11.37-37.09q0-24.49-11.46-37.63t-31.51-13.09q-19.9 0-31.44 13.13t-11.54 37.63q0 24.12 11.46 37.09t31.52 12.96Zm-19.46-78.1q6.78-9.59 19.46-9.58 12.84 0 19.63 9.58t6.78 28.05q0 18.28-6.78 27.59t-19.63 9.33q-12.69 0-19.46-9.33t-6.79-27.59q0-18.47 6.79-28.05ZM8.4 227.82h20.76v-7.72H8.4v-11.68h26.21v-7.72H0v48.57h35.29v-7.72H8.4v-13.73zM77.6 234.2l-25.87-33.5h-7.15v48.57h8.4v-33.5l25.87 33.5H86V200.7h-8.4v33.5zM94.6 208.42h14.3v40.85h8.4v-40.85h14.29v-7.72H94.6v7.72zM149.35 227.82h20.77v-7.72h-20.77v-11.68h26.21v-7.72h-34.61v48.57h35.3v-7.72h-26.9v-13.73zM221.84 215.79c0-8.6-6.78-15.09-15.77-15.09h-20.54v48.57h8.4v-18.39h10.17L214.18 249l.13.24h9.23l-11-19.3c1.97-.87 9.3-4.82 9.3-14.15Zm-15.77 7.38h-12.14v-14.75h12.14a7.38 7.38 0 0 1 0 14.75ZM265.57 200.8h-36.99v7.72h14.3v40.85h8.4v-40.85h14.29v-7.72zM292.59 200.7h-8.09l-20.13 48.57h8.82l5.11-12.6h20.49l5.11 12.6h8.81l-20-48.29Zm-11.2 28.3 7.16-18 7.15 18ZM320.28 200.7h8.4v48.57h-8.4zM374.44 234.2l-25.87-33.5h-7.14v48.57h8.4v-33.5l25.87 33.5h7.15V200.7h-8.41v33.5zM419.82 223.57l-18.15-22.87h-7.15v48.57h8.4v-33.88l16.9 21.22 16.91-21.22v33.88h8.4V200.7h-7.14l-18.17 22.87zM465.3 227.82h20.77v-7.72H465.3v-11.68h26.22v-7.72H456.9v48.57h35.29v-7.72H465.3v-13.73zM535.86 234.2l-25.87-33.5h-7.15v48.57h8.4v-33.5l25.87 33.5h7.15V200.7h-8.4v33.5zM552.44 200.7v7.72h14.3v40.85h8.4v-40.85h14.29v-7.72h-36.99z" style="fill:#000102"/></svg>