<svg xmlns="http://www.w3.org/2000/svg" width="225" height="150" version="1.0"><path d="M0 0h225v150H0z" style="fill:#d4d4d4"/><path d="M64.256 62.075h-1.12a7.377 7.377 0 0 0-.108-.299 1.313 1.313 0 0 1-.096-.45c0-.247.034-.483.102-.71a2.41 2.41 0 0 1 .302-.636c.133-.197.395-.512.788-.946.393-.434.589-.791.589-1.072 0-.547-.358-.82-1.072-.82-.348 0-.711.173-1.09.521l-.604-1.13c.504-.395 1.166-.593 1.987-.593.632 0 1.16.176 1.585.528.423.351.635.818.635 1.4 0 .398-.077.735-.231 1.01-.154.276-.426.6-.815.97-.388.372-.641.68-.758.926a1.856 1.856 0 0 0-.176.809c0 .062.027.226.082.492zm-.498.797a.92.92 0 0 1 .677.281.931.931 0 0 1 .278.68.931.931 0 0 1-.278.68.916.916 0 0 1-.677.28.926.926 0 0 1-.68-.28.926.926 0 0 1-.281-.68c0-.266.094-.492.281-.68a.926.926 0 0 1 .68-.281z" style="font-size:12px;font-style:normal;font-variant:normal;font-weight:700;font-stretch:normal;writing-mode:lr-tb;text-anchor:start;fill:#fff;font-family:Trebuchet MS" transform="translate(-561.857 -560.573) scale(10.52848)"/></svg>