<svg xmlns="http://www.w3.org/2000/svg" xml:space="preserve" width="327.157" height="106.08" viewBox="0 0 327.157 106.08"><defs><linearGradient id="b" x1="0" x2="1" y1="0" y2="0" gradientTransform="scale(79.55866 -79.55866) rotate(45 8.1 2.236)" gradientUnits="userSpaceOnUse" spreadMethod="pad"><stop offset="0" style="stop-opacity:1;stop-color:#eacc3b"/><stop offset="1" style="stop-opacity:1;stop-color:#e66473"/></linearGradient><linearGradient id="c" x1="0" x2="1" y1="0" y2="0" gradientTransform="matrix(47.2533 0 0 -47.2533 319.803 351.853)" gradientUnits="userSpaceOnUse" spreadMethod="pad"><stop offset="0" style="stop-opacity:1;stop-color:#b2b2b2"/><stop offset="1" style="stop-opacity:1;stop-color:#fff"/></linearGradient><clipPath id="a" clipPathUnits="userSpaceOnUse"><path d="M0 595.276h841.89V0H0Z"/></clipPath><clipPath id="d" clipPathUnits="userSpaceOnUse"><path d="M0 595.276h841.89V0H0Z"/></clipPath></defs><path d="m51.564 525.906-23.986 30.746 23.118 28.437H34.409l-22.008-28.148v28.148H0v-59.183h12.401v30.428l21.568-30.428zM139.482 561.937c3.596 0 18.907-2.351 18.907-17.858 0-16.403-15.446-18.172-15.446-18.172h-36.118v9.59l29.06-.018c8.425 0 8.342 8.189 8.342 8.189 0 8.978-9.957 8.613-9.957 8.613h-11.127c-5.109 0-18.275 1.879-18.275 15.739 0 16.658 16.318 17.069 16.318 17.069h33.07v-9.462l-27.147-.025c-8.77 0-8.63-6.936-8.63-6.936s.077-6.763 7.675-6.763zM78.96 535.54H64.39v16.641l17.979-.007s9.083-.34 9.083-8.216c0-7.868-6.81-8.419-12.491-8.419M64.39 575.482h15.993s8.692.398 8.692-6.957c0-6.329-5.467-6.744-7.234-6.868H64.39zm23.225-49.576c8.735 0 16.675 6.515 16.675 16.53 0 11.432-8.293 14.994-8.293 14.994s6.588 2.304 5.966 12.56c-.894 14.86-17.364 15.097-17.364 15.097H52.654v-59.154s27.605-.027 34.96-.027" style="fill:#fab700;fill-opacity:1;fill-rule:nonzero;stroke:none" transform="matrix(1.33333 0 0 -1.33333 0 793.701)"/><path d="M302.899 375.475c0-21.969 17.81-39.78 39.779-39.78 21.97 0 39.78 17.811 39.78 39.78s-17.81 39.78-39.78 39.78c-21.969 0-39.779-17.811-39.779-39.78" style="fill:url(#b);stroke:none" transform="matrix(1.33333 0 0 -1.33333 -182.787 553.673)"/><path d="M354.994 358.498c-2.213-1.842-4.727-3.566-7.532-5.146-9.985-5.623-21.082-8.141-27.659-8.144h48.673a39.895 39.895 0 0 1 10.18 13.29z" style="fill:url(#c);stroke:none" transform="matrix(1.33333 0 0 -1.33333 -182.787 553.673)"/><g clip-path="url(#d)" transform="matrix(1.33333 0 0 -1.33333 -182.787 553.673)"><path d="M0 0h.012-.015H0" style="fill:#fff;fill-opacity:1;fill-rule:nonzero;stroke:none" transform="translate(319.79 345.208)"/><path d="M0 0c-7.622 4.148-17.254 3.787-24.538-.922-5.301-3.426-8.04-7.971-9.2-10.376a6.644 6.644 0 1 1 11.968-5.778c.447.926 1.775 3.266 4.446 4.993 3.206 2.073 7.614 2.237 10.97.41 3.408-1.854 5.209-5.356 5.209-10.124 0-13.152-23.743-21.867-33.366-21.867h-13.091a39.895 39.895 0 0 1 10.18-13.29h2.923c6.576.003 17.674 2.522 27.659 8.144 2.806 1.58 5.319 3.303 7.532 5.146 7.443 6.196 11.453 13.754 11.453 21.867C12.145-12.146 7.718-4.201 0 0" style="fill:#fff;fill-opacity:1;fill-rule:nonzero;stroke:none" transform="translate(354.302 402.162)"/></g></svg>