<svg xmlns="http://www.w3.org/2000/svg" width="150.62411mm" height="189.07735mm" viewBox="0 0 150.62411 189.07735"><g style="opacity:1"><path d="M669.695 796.246c-2.092-.108-4.041.29-5.92 1.375-5.01 2.892-4.971 7.477-5.109 12.309l-.088 49.265a59.08 59.08 0 0 0-34.816-11.361c-32.63 0-59.08 26.451-59.08 59.08 0 32.63 26.45 59.08 59.08 59.08 29.646-.008 54.696-21.985 58.56-51.379v-85.947c15.753 10.453 23.047 21.101 32.256 37.32 2.057 3.672 6.414 8.118 11.756 8.12 6.84 0 12.542-5.545 12.543-12.385 0-3.222-2.005-7.1-3.13-8.992-14.325-24.81-30.165-41.361-54.222-52.55-4.633-2.165-8.342-3.754-11.83-3.935zm-45.933 76.625c18.801 0 34.043 15.242 34.043 34.043s-15.242 34.043-34.043 34.043c-18.802 0-34.043-15.242-34.043-34.043s15.241-34.043 34.043-34.043z" style="display:inline;fill:#c9b2df;stroke-width:1.33333;fill-opacity:1" transform="matrix(.23512 0 0 .23512 -81.669 -62.278)"/><path d="M899 796.002c-6.167-.16-12.334 4.01-12.334 12.994v100.818c0 8.24 5.761 12.748 12.99 12.748l39.946.104c17.488 0 16.414-25.234 0-25.234h-28.268v-88.436c0-8.342-6.167-12.833-12.334-12.994zm-121.127.008c-6.27.203-12.539 4.917-12.539 13.531v144.934c0 6.724 5.792 12.222 12.432 12.222 6.48.016 12.675 0 18.922 0 26.753 0 48.012-13.285 75.78-41.054l-.029-.028a12.66 12.66 0 0 0 3.276-8.49c0-6.992-5.668-12.66-12.66-12.66-3.977.003-7.27 2.145-10.11 5.053-26.474 26.044-44.799 30.72-62.533 30.72V809.542c0-9.426-6.27-13.734-12.539-13.531zm-51.338.127c-1.672-.02-3.468.285-5.36 1.016-8.66 3.344-7.571 13.178-7.571 18.623 8.105 7.114 20.215 22.82 24.988 32.457l.074-41.557c0-4.25-4.887-10.452-12.13-10.54zm-237.324.107a59.08 59.08 0 0 0-59.08 59.08 59.08 59.08 0 0 0 59.08 59.08 59.08 59.08 0 0 0 59.08-59.08 59.08 59.08 0 0 0-59.08-59.08zm0 25.473a33.607 33.607 0 0 1 33.607 33.607 33.607 33.607 0 0 1-33.607 33.608 33.607 33.607 0 0 1-33.607-33.608 33.607 33.607 0 0 1 33.607-33.607zm249.51 53.508c-9.523 5.498-15.555 5.455-24.69.181v79.25c0 16.369 24.69 15.897 24.69 0zm-344.184 63.441c-15.509 0-15.46 24.727.871 24.727h50.051v48.574c0 16.042 24.648 16.81 24.648 0v-48.574h38.051v48.574c0 15.908 24.656 15.998 24.656 0v-48.574h12.245c17.606 0 16.633-24.727-.36-24.727z" style="display:inline;fill:#e1e429;stroke-width:1.33333;fill-opacity:1" transform="matrix(.23512 0 0 .23512 -81.669 -62.278)"/></g><g style="display:inline;opacity:1"><path d="M709.766 178.717c-58.86-.311-114.64 21.723-147.409 54.492l-70.101 68.506 59.121 33.924 58.547-56.268c48.526-48.526 147.995-47.012 202.549 7.541 54.553 54.553 53.95 157.413 7.59 203.774L617.289 695.949c-30.527 30.527-69.488 41.735-100.135 41.735-30.646 0-66.798-.128-112.373-41.02l-199.408-201.41c-29.6-29.6-42.484-79.01-28.36-134.758 6.035-23.817 24.145-56.043 46.665-74.863 23.4-19.556 46.357-28.128 63.899-32.829 22.033-5.903 27.263-23.403 27.27-32.101 0-17.867-14.483-34.135-40.823-31.401-26.34 2.733-67.99 22.185-100.96 51.825-33.9 30.478-56.688 81.32-62.447 117.08-13.16 81.721 5.666 133.317 49.846 187.895l193.264 192.503c53.71 53.71 100.015 64.262 163.427 64.262 63.413 0 111.58-30.197 144.52-58.295l209.404-212.707c59.935-59.935 79.818-200.342-12.002-292.162-43.04-43.04-97.375-60.712-149.31-60.986Z" style="fill:#e1e429;stroke-width:2.0339" transform="matrix(.13612 0 0 .13553 5.308 -1.097)"/><path d="m2.695 108.464 17.464-18.27-43.792-44.114c-4.509-4.51-3.194-10.181 1.34-13.237 14.466-8.352 40.2-8.394 61.65-1.859 5.95 2.062 7.558 7.555 5.977 11.36-1.581 3.807-6.324 6.08-9.988 5.097-12.19-3.61-25.428-6.076-36.102-3.127l64.228 64.575c16.711 16.71 8.46 62.96-30.662 62.96-39.123 0-48.725-44.775-30.115-63.385zm48.077 12.73L32.62 102.31l-16.75 17.473c-11.07 11.07-2.759 35.046 17.198 35.046s26.637-24.701 17.705-33.634z" style="fill:#c9b2df;stroke-width:.538136" transform="matrix(.51446 0 0 .51224 58.54 -2.947)"/></g></svg>