<svg xmlns="http://www.w3.org/2000/svg" viewBox="0 0 90.77 40.55"><path d="m22.05 19.14-9.62-8.82a3.18 3.18 0 0 1-1.08-2.39 3.44 3.44 0 0 1 3.52-3.33h10.64V0H9.24C4.19 0 0 3.4 0 8.72a8.41 8.41 0 0 0 2.43 5.89L13.76 25.3A3.46 3.46 0 0 1 15 29c-.67 2.28-3.56 2.28-4.64 2.28H0v9.32h15.73c6.36 0 11.52-4.86 11.52-10.87v-.13c.18-4.49-2.24-7.7-5.2-10.46M85.55 19.14l-9.61-8.82a3.15 3.15 0 0 1-1.09-2.39 3.44 3.44 0 0 1 3.52-3.33H89V0H72.74c-5 0-9.24 3.4-9.24 8.72a8.42 8.42 0 0 0 2.44 5.89L77.26 25.3a3.46 3.46 0 0 1 1.25 3.7c-.66 2.28-3.56 2.28-4.64 2.28H63.51v9.32h15.73c6.36 0 11.52-4.86 11.52-10.87v-.13c.17-4.48-2.24-7.7-5.21-10.46M61.31 28.78a11.8 11.8 0 0 0-8.16-11.43 8.3 8.3 0 0 0 6.26-8.55A8.33 8.33 0 0 0 55.93 2C52.87-.11 48.3.05 48.3.05h-18v40.5h19.1a13.64 13.64 0 0 0 7.77-2.77 12 12 0 0 0 4.14-9ZM40.06 4.67h4.3c.66 0 5.16 0 5.54 4.39.26 3.14-1.87 5.11-5.33 5.11h-4.51Zm5.17 26.56h-5.17V20.44h5c.65 0 5.68 0 6 5 .29 3.56-2.37 5.79-5.83 5.79Z" class="cls-1" style="fill:#fff"/></svg>