<svg xmlns="http://www.w3.org/2000/svg" viewBox="0 0 2452.594 192"><g fill="#fff"><path d="M18.34 174.266v9.785c0 4.891-2.445 6.727-8.559 6.727s-8.559-1.836-8.559-6.727v-9.785l-1.223-1.223h7.337l-1.223 1.223v9.785c0 2.445 1.223 3.059 3.668 3.059s3.668-1.223 3.668-3.059v-9.785l-1.223-1.223h7.336l-1.223 1.223ZM47.07 174.266v16.512h-3.668l-9.777-10.395v9.172l1.223 1.223h-6.113l.609-1.223v-14.676l-1.223-1.223h5.504l9.168 10.395v-9.172l-1.223-1.223h6.113l-.613.609ZM58.074 190.778l1.223-1.223v-14.676l-1.223-1.223h7.336l-1.223 1.223v14.676l1.223 1.223h-7.336ZM84.363 190.778h-3.668l-7.949-17.734h7.336l-1.223 1.223 4.281 9.785 4.277-9.785-1.223-1.223h6.113l-7.945 17.734ZM99.645 190.778l1.223-1.223v-14.676l-1.223-1.223h16.508v4.891l-1.223-1.832h-9.172v3.668h5.504l1.223-1.223v5.504l-1.223-1.223h-5.504v3.668h9.172l1.223-1.223v4.891H99.645ZM138.156 179.16a2.809 2.809 0 0 1-3.055 2.445h-3.059v-4.281h4.281c.609-.609 1.832 0 1.832 1.836Zm6.113 11.617-4.891-6.727a6.543 6.543 0 0 0 4.281-5.504c0-3.055-1.836-5.504-6.727-5.504h-11.004l1.223 1.223v15.289l-1.223 1.223h7.336l-1.223-1.223v-4.891h2.445l3.668 4.891-1.223 1.223h7.336ZM162 191.387a18.749 18.749 0 0 1-6.727-1.223L154.05 192v-6.727a16.439 16.439 0 0 0 7.949 2.445c.609 0 2.445 0 2.445-1.223s-2.445-1.832-4.891-2.445c-3.668-1.223-5.504-2.445-5.504-6.113 0-2.445 1.836-4.895 7.949-4.895 1.895.047 3.766.465 5.5 1.223l1.223-1.223v6.117a18.332 18.332 0 0 0-7.336-1.836c-1.223 0-2.445.613-2.445 1.223 0 .613 3.059 1.836 4.891 2.445 3.059 1.223 5.504 2.449 5.504 5.504s-2.445 4.891-7.336 4.891ZM190.121 184.664h-6.113l3.055-6.117 3.059 6.117Zm8.559 6.113-8.559-17.734h-6.113l.609 1.223-7.945 16.512h6.723l-1.223-1.223.613-1.836h8.559l.609 1.836-1.223 1.223h7.949ZM206.016 190.778l1.219-1.223v-14.676l-1.219-1.223h7.332l-1.223 1.223v12.84h8.559l1.223-1.223v4.891h-15.891v-.609ZM261.645 190.778l1.223-1.223v-8.562l-4.891 9.785h-2.445l-5.504-9.785v8.562l1.223 1.223h-6.113l1.223-1.223v-14.676l-1.223-1.223h6.113l5.504 11.008 5.5-11.008h6.113l-.609.609v15.289l1.223 1.223h-7.336ZM296.488 174.266v9.785c0 4.891-2.445 6.727-8.559 6.727s-8.559-1.836-8.559-6.727v-9.785l-1.223-1.223h7.336l-1.223 1.223v9.785c0 2.445 1.223 3.059 3.668 3.059s3.668-1.223 3.668-3.059v-9.785l-1.223-1.223h7.336l-1.223 1.223ZM314.215 191.387a18.727 18.727 0 0 1-6.723-1.223L306.269 192v-6.727a16.427 16.427 0 0 0 7.945 2.445c.613 0 2.445 0 2.445-1.223s-2.445-1.832-4.891-2.445c-3.668-1.223-5.5-2.445-5.5-6.113 0-2.445 1.832-4.895 7.945-4.895 2.086.113 4.145.523 6.113 1.223l1.223-1.223v6.117a18.332 18.332 0 0 0-7.336-1.836c-1.223 0-2.445.613-2.445 1.223 0 .613 3.059 1.836 4.891 2.445 3.059 1.223 5.504 2.449 5.504 5.504s-2.445 4.891-7.949 4.891ZM331.332 190.778l1.223-1.223v-14.676l-1.223-1.223h7.336l-1.223 1.223v14.676l1.223 1.223h-7.336ZM357.621 191.387c-5.504 0-10.395-2.445-10.395-9.172a9.351 9.351 0 0 1 3.164-6.887 9.347 9.347 0 0 1 7.23-2.285 14.67 14.67 0 0 1 5.5 1.223l1.223-1.223v6.117a10.345 10.345 0 0 0-6.113-1.836c-3.668 0-4.891 2.445-4.891 5.504a5.135 5.135 0 0 0 1.492 4.012 5.128 5.128 0 0 0 4.012 1.492 10.15 10.15 0 0 0 6.113-1.836v3.059a25.751 25.751 0 0 1-7.336 1.832ZM400.41 182.215h6.113v7.34a15.265 15.265 0 0 1-7.945 1.832c-5.504 0-10.395-2.445-10.395-9.172.02-2.645 1.16-5.16 3.145-6.91s4.621-2.574 7.25-2.262a13.19 13.19 0 0 1 6.113 1.223l1.223-1.223v6.117a12.195 12.195 0 0 0-6.727-1.836c-3.055 0-4.891 1.836-4.891 5.504a5.018 5.018 0 0 0 4.89 5.504h2.445v-4.891l-1.223-1.227ZM427.922 179.16a2.813 2.813 0 0 1-3.059 2.445h-3.055v-4.281h4.277c.613-.609 1.836 0 1.836 1.836Zm6.113 11.617-4.891-6.727a6.545 6.545 0 0 0 4.277-5.504c0-3.055-1.832-5.504-6.723-5.504h-11.004l1.223 1.223v15.289l-1.223 1.223h7.336l-1.223-1.223v-4.891h2.445l3.668 4.891-1.223 1.223h7.336ZM456.652 182.215c0 3.059-1.223 5.504-4.891 5.504a5.013 5.013 0 0 1-4.89-5.504c0-3.055 1.223-5.5 4.891-5.5s4.891 1.832 4.891 5.5Zm5.5 0c0-6.723-4.887-9.172-10.391-9.172s-10.391 2.449-10.391 9.172a10.452 10.452 0 0 0 20.782 0ZM489.051 174.266v9.785c0 4.891-2.445 6.727-8.559 6.727s-8.559-1.836-8.559-6.727v-9.785l-1.223-1.223h7.336l-1.223 1.223v9.785c0 2.445 1.223 3.059 3.668 3.059s3.668-1.223 3.668-3.059v-9.785l-1.223-1.223h7.336l-1.223 1.223ZM511.059 179.16c0 2.445-1.223 3.055-3.668 3.055h-2.445v-5.5h3.059c1.832 0 3.055.609 3.055 2.445Zm5.504 0c0-4.895-4.891-6.117-8.559-6.117h-9.781l1.223 1.223v15.289l-1.223 1.223h7.945l-1.223-1.223v-3.668h3.059c4.277 0 8.559-1.223 8.559-6.727Z"/><path fill-rule="evenodd" d="M323.387 91.11c-9.102 28.879-35.75 48.621-66.023 48.918-30.328.465-57.281-19.258-66.02-48.309 10.828 26.805 37.125 44.098 66.02 43.414 29.059.621 55.418-16.957 66.023-44.023ZM191.344 48.918C200.512 21.403 221.906 0 257.363 0c30.73-.09 57.855 20.07 66.633 49.527C313.34 22.148 286.734 4.324 257.363 4.89c-29.059-.617-55.418 16.957-66.02 44.027Z"/><path fill-rule="evenodd" d="M258.586 42.192c.613-.613 1.836 0 2.445 0 .613 0 1.223 1.836 2.445 1.223s1.836 1.836 4.281 1.223c2.445-.609-.613.613-.613.613a2.91 2.91 0 0 0-2.445 0c-.609 0 0 0-.609-.613-.613-.609-1.223 0-3.668-1.836-.613-1.223-2.445 0-1.836-.609Zm12.227 48.305c1.223.613 2.445 1.223 2.445 3.059 1.223 3.668-.609.609-.609 5.504s-1.223 4.277-1.223 4.277a16.179 16.179 0 0 1-3.059 9.172 2.876 2.876 0 0 0-.609 3.672 13.888 13.888 0 0 0-1.836 4.277 3.303 3.303 0 0 0 3.059 3.059c1.223-.609-2.445-.609 1.223-2.445 1.832-.613 0-1.836 0-1.836s2.445 0 4.277-4.277c2.445.609 1.836-1.223 7.336-2.449 1.223-.609 1.836-.609 1.836-1.832s1.832 0 7.336-5.504c4.277-4.281 2.441-5.504 5.5-6.727 3.055-1.223 3.668 0 4.277-1.223a8.72 8.72 0 0 0 2.445-4.891l.613-1.223-33.012-.613ZM240.86 45.251a12.831 12.831 0 0 1 1.223-9.172 6.11 6.11 0 0 1 7.336-1.836c3.055-2.445 3.668 0 6.723-1.223 3.059-1.223 1.836 4.281 4.891 5.504 1.223-3.672-3.055-6.727-.609-8.562a14.752 14.752 0 0 0 4.891-3.668c.609-1.836 1.223-3.668 2.445-3.668a2.445 2.445 0 0 0 1.832-3.059 4.767 4.767 0 0 0 4.281-1.223c-1.223-.609-3.668-1.223-3.059-3.059.613-1.832 5.504 1.836 6.727-1.223-3.059-1.223-5.504-3.668-7.336-4.277-1.223 1.223-1.836.609-3.668-.613-1.836-1.223-3.059 0-4.281-1.223-1.223 2.445.613 2.445 1.223 3.059 1.836 1.832-1.832-1.836-1.223 3.055 0 1.223-1.832 1.223-3.055-1.223-.613-1.223-6.113-1.223-6.727-2.445a19.863 19.863 0 0 1 17.117-5.504c-14.059-5.504-33.621.613-33.621 2.445-1.836 1.223-1.223 2.449-2.445 3.059-1.223.613-3.668 5.504-3.668 5.504s1.223.609-2.445 4.281a24.396 24.396 0 0 0-3.668 7.336 10.914 10.914 0 0 1 1.223 6.727c0 3.059-.613.609.609 2.445s1.223 5.504 1.836 3.668c.609-3.055-1.836-6.113-1.223-9.172 0 .613 1.223-1.223 1.223 0a31.275 31.275 0 0 0 4.891 11.008s-1.836 1.836 0 1.836l8.559 1.223Z"/><path d="M138.156 55.645h-11.004l1.836 1.832v14.066c0 3.055-1.836 4.277-5.504 4.277s-5.5-1.223-5.5-4.277V57.477l1.836-1.832h-11.004l1.832 1.832v14.066c0 6.723 4.281 9.781 12.836 9.781s12.84-2.445 12.84-9.781V57.477l1.832-1.832ZM176.059 55.645h-9.781l1.836 1.832v12.844l-12.84-14.676h-8.559l1.836 1.832v21.402l-1.836 2.445h9.172l-1.836-2.445v-12.84l14.062 15.285h6.113V57.476l1.832-1.832ZM196.844 81.325l-1.832-2.445V57.478l1.832-1.832H185.84l1.836 1.832V78.88l-1.836 2.445h11.004ZM232.91 55.645h-9.168l1.832 1.832-6.723 14.066-6.113-14.066 1.832-1.832h-11l12.223 25.68h4.891l12.227-25.68ZM264.09 81.325v-7.336l-1.836 1.832h-13.449V70.93h8.559l1.836 1.223v-7.949l-1.836 1.836h-8.559v-4.891h13.449l1.836 1.223v-6.727h-24.453l1.832 1.832v21.402l-1.832 2.445h24.453Z"/><path fill-rule="evenodd" d="m300.766 81.325-6.723-9.781a8.437 8.437 0 0 0 6.113-7.949c0-4.281-2.445-7.949-9.781-7.949h-16.504l1.832 1.832V78.88l-1.832 2.445h11.004l-1.836-1.832v-7.34h3.059l4.891 7.34-1.836 1.832h11.613Zm-8.559-17.73c0 1.832-1.832 3.055-4.277 3.055h-4.891v-6.113h6.113c1.223.613 3.055 1.223 3.055 3.059Z"/><path d="M333.777 73.375c0-4.281-3.055-6.113-7.945-7.949-3.059-1.223-7.336-1.832-7.336-3.668s1.223-1.836 3.055-1.836a27.22 27.22 0 0 1 11.004 3.059v-8.559l-1.832 1.832a42.778 42.778 0 0 0-8.559-1.832c-8.559 0-11.617 3.668-11.617 7.336 0 4.891 3.059 6.727 7.949 8.562 3.668 1.223 7.336 1.223 7.336 3.668s-1.836 1.832-3.059 1.832a32.354 32.354 0 0 1-12.227-3.668v9.172l1.836-2.445a39.83 39.83 0 0 0 10.391 1.836c7.336 1.223 11.004-2.449 11.004-7.34Z"/><path fill-rule="evenodd" d="m372.293 81.325-12.84-25.68h-8.559l1.223 1.832-11.613 23.848h9.781l-1.836-1.832 1.223-2.449h12.227l1.223 2.449-1.832 1.832h11.004Zm-12.227-9.172h-8.559l4.277-9.172 4.281 9.172Z"/><path d="M402.855 81.325v-7.336l-1.832 1.832h-12.227V57.477l1.223-1.832h-10.395l1.223 1.832v21.402l-1.223 2.445h23.23ZM396.133 59.313a3.057 3.057 0 1 0 6.114 0 3.058 3.058 0 0 0-3.059-3.059c-1.832-.609-3.055 1.223-3.055 3.059Zm-.613 0a3.669 3.669 0 1 1 3.668 3.668c-1.832-.609-3.668-1.832-3.668-3.668Z"/><path fill-rule="evenodd" d="M400.41 57.477c-.609 0-.609-.609-1.223-.609a1.835 1.835 0 0 0 0 3.668c.613 0 1.223 0 1.223-.613v-.609q-.609.609-1.223.609c-.609 0-1.223-.609-1.223-1.832a1.345 1.345 0 0 1 1.223-1.223c.32.348.754.566 1.223.609Z"/><path d="M689.562 70.321v40.965c0 20.18-11.004 27.516-36.066 27.516s-36.066-7.949-36.066-27.516V70.321l-4.281-5.504h30.566l-4.281 5.504v39.742c0 9.172 6.113 12.844 14.672 12.844s14.672-3.672 14.672-12.844V69.708l-4.277-5.504h30.566l-5.504 6.117ZM793.488 70.321v67.258H776.98l-39.125-42.801v37.301l4.281 5.5H716.46l4.277-5.5V70.321l-4.277-5.504h23.23l36.68 42.191V70.32l-4.281-5.504h25.676l-4.277 5.504ZM824.664 136.969l4.277-5.504V70.32l-4.277-5.504h30.566l-4.281 5.504v61.758l4.281 5.5-30.566-.609ZM923.695 136.969h-15.281l-33.621-72.152h30.562l-4.277 5.504 17.727 39.742 18.34-39.742-4.277-5.504h25.676l-34.848 72.152ZM978.715 136.969l4.277-5.504V70.32l-4.277-5.504h68.469v19.566l-5.504-4.281h-37.289v14.062h23.23l5.5-4.277v23.848l-5.5-4.281h-23.23v12.84h37.289l5.504-4.281v19.566h-68.469v-.609ZM1115.648 136.969l4.281-5.504-14.062-20.789h-9.168v20.789l4.277 5.504h-30.566l4.281-5.504V70.32l-4.281-5.504h45.238c20.785 0 28.121 9.781 28.121 22.012a24.094 24.094 0 0 1-16.504 22.012l19.559 28.738-31.176-.609Zm-1.832-57.477h-16.508v18.344h14.062c6.723 0 12.227-4.281 12.227-9.172a9.112 9.112 0 0 0-9.781-9.172ZM1202.457 138.801a83.918 83.918 0 0 1-28.734-6.113l-5.5 6.113v-26.902a65.201 65.201 0 0 0 33.621 10.395c3.059 0 9.172-.613 9.172-5.504 0-6.113-9.781-6.113-20.176-9.781-14.059-4.895-22.617-11.008-22.617-24.461 0-9.781 7.945-20.789 32.398-20.789a75.191 75.191 0 0 1 23.844 4.891l5.5-5.5v24.457a78.227 78.227 0 0 0-30.566-7.949c-6.113 0-9.168 1.836-9.168 4.891 0 5.504 12.227 7.949 20.785 10.395 13.449 4.281 22.617 11.008 22.617 22.016 0 14.672-9.781 23.844-31.176 23.844ZM1310.047 136.969l4.277-5.504-3.664-7.336h-34.234l-3.668 7.336 4.277 5.504h-26.898l32.402-67.262-2.445-5.504h24.453L1340 136.355h-29.953v.613Zm-16.504-51.977-12.227 25.684h23.84l-11.613-25.684ZM1358.953 136.969l4.277-5.504V70.32l-4.277-5.504h30.566l-4.281 5.504v51.973h34.844l5.504-4.281v19.566l-66.633-.609ZM1561.297 136.969l4.281-5.504V96.613l-18.953 40.355h-10.391l-22.008-40.969v35.465l4.277 5.504h-25.062l4.277-5.504V70.319l-4.277-5.504h25.676l23.84 44.023 21.398-44.023h26.285l-4.281 5.504v61.758l4.281 5.5-29.344-.609ZM1692.117 70.321v40.965c0 20.18-11.004 27.516-36.066 27.516s-36.066-7.949-36.066-27.516V70.321l-4.281-5.504h30.566l-4.277 5.504v39.742c0 9.172 6.113 12.844 14.668 12.844s14.672-3.672 14.672-12.844V69.708l-4.277-5.504h30.566l-5.504 6.117ZM1753.25 138.801a83.876 83.876 0 0 1-28.73-6.113l-5.504 6.113v-26.902a65.213 65.213 0 0 0 33.621 10.395c3.059 0 9.172-.613 9.172-5.504 0-6.113-9.781-6.113-20.176-9.781-14.059-4.895-22.617-11.008-22.617-24.461 0-9.781 7.949-20.789 32.398-20.789a75.191 75.191 0 0 1 23.844 4.891l5.5-5.5v24.457a78.227 78.227 0 0 0-30.566-7.949c-6.113 0-9.168 1.836-9.168 4.891 0 5.504 12.227 7.949 20.785 10.395 13.449 4.281 22.617 11.008 22.617 22.016 0 14.672-9.781 23.844-31.176 23.844ZM1808.27 136.969l4.277-5.504V70.32l-4.277-5.504h30.562l-4.277 5.504v61.758l4.277 5.5-30.562-.609ZM1904.855 138.801c-22.008 0-42.18-11.004-42.18-37.91 0-21.398 15.281-37.297 42.793-37.297a75.916 75.916 0 0 1 22.617 3.668l4.891-4.891v23.844a47.213 47.213 0 0 0-26.289-7.336 19.982 19.982 0 0 0-15.844 6 20 20 0 0 0-5.551 16.012c-.34 5.938 1.867 11.738 6.07 15.941s10.004 6.414 15.938 6.074a46.336 46.336 0 0 0 25.676-7.949v17.121a65.412 65.412 0 0 1-28.121 6.723ZM2056.461 70.321v40.355c0 17.121-10.391 28.125-35.457 28.125a57.114 57.114 0 0 1-15.281-2.445v-18.953l5.5 4.891a25.254 25.254 0 0 0 9.781 1.223c9.172 0 14.672-4.281 14.672-12.23V69.709l-4.277-5.504h30.566l-5.504 6.117ZM2134.711 136.969l4.277-5.504-3.668-7.336h-34.234l-3.668 7.336 4.281 5.504h-26.898l32.398-67.262-2.445-5.504h24.453l35.457 72.152h-29.953v.613Zm-16.508-51.977-12.227 25.684h23.844l-11.617-25.684ZM2222.129 116.18h-12.84v15.898l4.281 5.5h-30.566l4.277-5.5V70.32l-4.277-5.504h39.125c14.059 0 34.23 4.277 34.23 23.848.613 22.621-17.113 27.516-34.23 27.516Zm-.613-36.688h-12.227v22.012h10.395c9.781 0 15.281-2.445 15.281-11.617 0-7.949-5.5-10.395-13.449-10.395ZM2322.996 136.969l4.277-5.504-3.668-7.336h-34.234l-3.668 7.336 4.281 5.504h-26.898l32.398-67.262-2.445-5.504h24.453l35.457 72.152h-29.953v.613Zm-16.508-51.977-12.227 25.684h23.844l-11.617-25.684ZM2448.312 70.321v67.258h-16.504l-39.125-42.801v37.301l4.281 5.5h-25.676l4.277-5.5V70.321l-4.277-5.504h23.23l36.676 42.191V70.32l-4.277-5.504h25.676l-4.281 5.504Z"/></g></svg>