<svg xmlns="http://www.w3.org/2000/svg" viewBox="0 0 676.585 262.177"><path fill="#fff" d="M1.057 261.183c-2.928-2.928.409-5.822 7.781-6.749 2.578-.324 7.219-1.404 10.312-2.4 5.657-1.821 22.052-8.185 22.666-8.799.181-.181-.78-2.752-2.136-5.714-1.927-4.209-2.467-6.85-2.473-12.096-.019-17.413 12.764-33.998 47.567-61.711 9.226-7.346 33.383-23.849 48.78-33.323 14.154-8.709 28.52-17.226 38.407-22.769 23.381-13.109 63.028-32.693 79.688-39.362 4.125-1.651 8.238-3.389 9.141-3.861.903-.472 4.489-1.957 7.969-3.3 3.48-1.343 8.437-3.264 11.015-4.267 17.88-6.963 60.812-21.132 77.812-25.682a5290.387 5290.387 0 0 0 20.625-5.585c6.703-1.83 15.984-4.206 20.625-5.279s10.758-2.495 13.594-3.159c19.694-4.609 34.848-7.531 60.938-11.751 45.561-7.37 116.527-7.137 164.531.541 22.664 3.625 36.589 11.136 38.517 20.775.494 2.469.057 3.263-3.508 6.373-8.213 7.165-36.957 18.806-75.322 30.504-7.219 2.201-17.344 5.368-22.5 7.037a2172.218 2172.218 0 0 1-20.625 6.526c-26.598 8.193-55.43 17.077-77.812 24.423-5.672 1.865-12.422 3.841-15 4.392-6.371 2.492-13.365 4.47-19.219 6.352-2.836.946-9.586 3.062-15 4.701-5.414 1.64-12.447 3.997-15.629 5.238-3.182 1.241-6.107 2.257-6.501 2.257-33.387 11.391-64.629 20.096-98.339 31.896-1.547.547-19.477 6.514-39.844 13.259-108.737 36.011-136.062 45.113-142.031 47.307a1989.545 1989.545 0 0 1-12.656 4.596c-18.126 6.495-27.413 10.03-53.276 20.277-7.739 3.066-7.789 3.108-5.767 4.745 12.742 10.318 62.315 5.393 119.16-11.837 16.214-4.915 20.738-6.802 24.95-10.407 2.104-1.801 4.189-3.274 4.634-3.274s2.276-1.196 4.07-2.658c4.009-3.268 14.771-9.538 21.073-12.277 2.578-1.12 6.205-2.85 8.06-3.843 4.736-2.536 22.994-9.844 34.096-13.647 11.254-3.855 20.4-4.432 22.028-1.39.735 1.374.602 2.176-.551 3.33-4.226 4.226-46.512 23.308-73.945 33.368-2.578.945-8.273 3.039-12.656 4.653-8.182 3.012-15 8.13-15 11.259 0 3.159 3.345 4.851 9.564 4.84 6.869-.012 15.191-2.089 32.155-8.024 14.409-5.041 41.511-15.65 50.639-19.823a110.89 110.89 0 0 1 5.498-2.308c1.47-.559 7.163-3.729 12.652-7.045 13.531-8.175 18.311-10.236 20.731-8.941 1.037.555 1.886 1.79 1.886 2.743 0 1.69-1.016 2.255-24.844 13.813-4.879 2.367-10.556 6.525-9.807 7.184.763.671 18.539-7.48 29.814-13.671 8.818-4.842 11.247-5.807 12.571-4.994.902.554 1.641 1.476 1.641 2.049s-2.937 3.32-6.526 6.103-6.542 5.365-6.562 5.739c-.02.373 2.126-.597 4.77-2.155 5.564-3.281 7.736-3.236 8.132.167.248 2.124-.275 2.634-4.219 4.114-2.476.929-6.915 2.893-9.865 4.365-2.95 1.471-6.627 2.675-8.17 2.675-3.36 0-5.085-2.443-3.599-5.097.78-1.394.714-1.652-.314-1.224-.716.299-5.275 2.286-10.13 4.417-11.569 5.076-14.597 4.944-17.595-.769-.266-.508-9.998 3.062-21.39 7.846-5.672 2.382-15.586 6.161-22.031 8.399s-13.451 4.699-15.568 5.471c-7.434 2.71-19.172 4.604-24.447 3.945-7.117-.889-10.076-3.606-10.113-9.286-.03-4.623-.538-4.978-4.811-3.353-11.382 4.328-46.412 13.073-64.123 16.008-33.15 5.495-52.231 4.728-64.376-2.585l-5.346-3.219-12.717 5.133c-24.055 9.709-29.376 11.186-31.748 8.814Zm54.26-22.893c16.61-6.774 70.673-26.225 89.927-32.355 4.898-1.559 10.383-3.376 12.188-4.036 4.512-1.651 7.58-2.692 24.844-8.433 14.377-4.78 23.808-7.857 82.5-26.916 14.438-4.688 27.094-8.861 28.125-9.273 1.031-.412 9.68-3.279 19.219-6.372 60.399-19.785 128.083-41.706 183.281-58.741 17.164-5.358 21.368-6.65 52.031-15.992 87.854-26.765 117.061-37.77 123.089-46.375 2.957-4.222-2.235-10.806-11.731-14.876-15.475-6.633-63.364-11.679-110.421-11.634-36.399.035-63.171 2.728-106.875 10.751-24.534 4.504-68.003 15.257-90 22.263-7.731 2.462-10.107 3.184-18.75 5.697-3.867 1.124-8.086 2.482-9.375 3.018s-6.352 2.337-11.25 4.003c-14.103 4.796-35.727 12.706-40.027 14.642-2.163.974-4.202 1.771-4.53 1.771-2.751 0-59.255 26.486-75.443 35.363-2.836 1.555-9.922 5.435-15.748 8.623-5.825 3.187-14.771 8.305-19.879 11.374-5.108 3.068-9.557 5.578-9.885 5.578s-1.719.867-3.09 1.926c-1.371 1.059-7.976 5.439-14.68 9.734-14.171 9.079-25.416 16.701-30.517 20.684a352.514 352.514 0 0 1-8.105 6.082C75.793 175.269 54.17 196.211 48.292 205.4c-3.43 5.362-7.112 15.045-7.112 18.705 0 3.41 2.341 11.562 4.084 14.222 1.968 3.003 2.603 3.001 10.052-.037Zm164.578-20.13c29.177-11.457 62.942-26.938 60.587-27.777-4.064-1.448-49.818 17.848-64.924 27.38-6.392 4.033-5.2 4.143 4.338.397Z"/></svg>