<svg xmlns="http://www.w3.org/2000/svg" width="250" height="158.892" viewBox="0 0 66.145832 42.040176"><path fill="#fff" d="m36.576 42.007-1.153-.093c-3.979-.322-6.576-.984-9.331-2.38-3.721-1.883-5.632-4.386-5.951-7.794-.174-1.855-.085-3.148.437-6.366.496-3.057.556-3.387.95-5.303.532-2.573 1.008-5.368 1.928-11.306l.376-2.407c.094-.597.214-1.405.267-1.797.052-.391.158-1.069.234-1.505.076-.436.187-1.121.246-1.522.13-.874.212-1.088.513-1.341L25.32 0l1.73.06c2.228.078 7.866.078 9.834 0L38.414 0l.242.213c.416.365.432.473.228 1.615l-.378 2.123c-.417 2.35-.689 3.869-.88 4.915a574.657 574.657 0 0 0-1.457 8.271 82.533 82.533 0 0 0-.337 2.102c-.05.373-.183 1.257-.295 1.966-.435 2.759-.511 3.51-.51 5.017 0 1.252.017 1.488.147 1.96.3 1.086.715 1.689 1.532 2.22 1.132.737 3.369 1.066 5.037.741 1.522-.296 2.455-.785 3.337-1.747.553-.603.88-1.105 1.359-2.09.86-1.765 1.125-2.952 2.847-12.711a518.494 518.494 0 0 0 1.294-7.966c.072-.447.21-1.332.305-1.966.238-1.579.553-3.41.634-3.684.107-.361.4-.81.565-.867.084-.03 3.096-.046 6.694-.039l6.693.014c.224 0 .618.378.667.642.043.23-.103 1.34-.282 2.137-.054.243-.159.792-.232 1.22a430.81 430.81 0 0 1-.88 5.017c-.113.616-.295 1.638-.403 2.272a339.857 339.857 0 0 1-.886 4.982c-.11.578-.353 1.964-.542 3.079-.189 1.115-.355 2.046-.37 2.07-.021.035-.352 2.512-.48 3.597-.02.168-.08.518-.133.78-.053.26-.175.901-.272 1.423-.417 2.244-.985 4.194-1.552 5.323-1.425 2.839-3.222 4.732-6.48 6.422-4.036 2.094-8.563 2.86-11.714 2.928-.618.064-4.632.085-5.336.028zM.645 41.238c-.647-.108-.787-.66-.511-2.02.201-.997 1.049-5.785 1.628-9.2.658-3.883 1.172-6.97 1.321-7.932.098-.634.268-1.701.377-2.373.11-.67.352-2.288.54-3.593.186-1.305.4-2.784.475-3.288.112-.748.39-2.874.576-4.406.02-.168.111-.885.203-1.594a75.87 75.87 0 0 0 .27-2.474c.059-.653.135-1.354.17-1.56.034-.204.097-.738.14-1.186.088-.92.224-1.294.54-1.48.195-.116.334-.119 2.41-.05 2.5.083 5.861.087 8.945.012 1.156-.028 2.204-.029 2.33 0 .277.06.6.356.65.595.021.098-.004.406-.055.686-.052.28-.19 1.042-.307 1.695-.117.652-.262 1.445-.322 1.762-.385 2.025-.65 3.544-1.242 7.085-.293 1.752-.598 3.659-.678 4.237A68.569 68.569 0 0 1 17.659 19c-.092.541-.245 1.578-.34 2.305a36.282 36.282 0 0 1-.202 1.424c-.044.151-.431 2.866-.575 4.034a96.61 96.61 0 0 1-.408 2.983 97.94 97.94 0 0 0-.371 2.813c-.052.429-.171 1.375-.265 2.102-.093.727-.233 1.917-.31 2.644a32.227 32.227 0 0 1-.171 1.423c-.016.056-.06.492-.099.969-.071.895-.142 1.124-.428 1.391l-.168.157-6.737.013c-3.705.007-6.828-.002-6.94-.021z"/></svg>