<svg xmlns="http://www.w3.org/2000/svg" width="1000px" height="1000px" x="0px" y="0px" viewBox="0 0 264.58333 264.58334"><g fill="#B7B7B7"><path d="M96.47 106.431c0-2.755.567-4.992 1.702-6.71 1.134-1.72 2.806-2.58 5.016-2.58s3.877.86 5.002 2.58c1.124 1.718 1.687 3.966 1.687 6.74 0 2.775-.563 5.023-1.687 6.742-1.125 1.719-2.792 2.579-5.002 2.579s-3.882-.865-5.016-2.594c-1.135-1.73-1.703-3.982-1.703-6.757zm9.734 5.113c.697-1.277 1.045-2.971 1.045-5.083 0-2.11-.348-3.81-1.045-5.097-.697-1.287-1.702-1.93-3.016-1.93-1.294 0-2.29.643-2.986 1.93-.697 1.287-1.045 2.986-1.045 5.097 0 2.112.348 3.806 1.045 5.083.697 1.277 1.692 1.915 2.986 1.915 1.314 0 2.32-.638 3.016-1.915zm10.87 9.969h-2.658V95.15h2.658zM135.259 114.786h-12.512V97.805h12.512zm-2.628-2.202V99.976h-7.256v12.608zm10.093 8.929h-2.628V95.15h2.628zM163.268 113.248l-1.553 1.99c-1.334-.783-2.638-1.915-3.912-3.393-1.274-1.478-2.11-2.92-2.508-4.328-.378 1.549-1.174 3.092-2.389 4.63-1.214 1.538-2.597 2.77-4.15 3.695l-1.673-1.93c2.05-1.227 3.703-2.88 4.957-4.962 1.255-2.081 1.882-4.368 1.882-6.862v-2.111h-5.913v-2.172h14.482v2.172h-5.852v2.11c0 2.454.617 4.661 1.851 6.622 1.234 1.96 2.827 3.473 4.778 4.539zm2.807-18.097h2.658v26.362h-2.658zM67.953 137.348c1.264-1.146 2.841-1.72 4.733-1.72 1.89 0 3.468.569 4.733 1.705 1.264 1.136 1.896 2.609 1.896 4.419 0 1.81-.632 3.262-1.896 4.358-1.265 1.096-2.842 1.644-4.733 1.644-1.892 0-3.47-.548-4.733-1.644-1.265-1.096-1.896-2.538-1.896-4.328 0-1.81.631-3.288 1.896-4.434zm4.733.543c-1.155 0-2.11.352-2.867 1.055-.756.704-1.134 1.629-1.134 2.775s.377 2.062 1.134 2.745c.756.684 1.712 1.025 2.867 1.025 1.154 0 2.1-.341 2.837-1.025.736-.683 1.105-1.588 1.105-2.715 0-1.166-.364-2.1-1.09-2.805-.727-.703-1.678-1.055-2.852-1.055zm14.512 22.5H70.416v-10.496h2.628v3.137H84.54v-3.197h2.658Zm-2.657-2.14v-3.107H73.044v3.106zm0-15.504H80.39v-2.172h4.15v-6.213h2.658v14.086h-2.657zM115.178 157.376h-23.56v-2.172h10.39v-4.162h-7.554v-8.476h15.17v-3.86h-15.23v-2.173h17.857v8.205H97.08v4.132h15.887v2.172h-8.302v4.162h10.511v2.172zM141.007 157.165h-23.56v-2.172h23.56zm-2.807-7.722h-17.708v-12.487h17.469v2.171H123.12v8.174h15.08v2.142zM157.071 136.564c2.33 0 3.982 1.317 4.957 3.95h3.554v-5.64h2.508v24.553h-2.508v-8.476h-3.613c-.976 2.594-2.608 3.891-4.898 3.891-1.87 0-3.295-.85-4.27-2.549-.975-1.699-1.463-3.916-1.463-6.65 0-2.695.488-4.882 1.463-6.561.975-1.679 2.4-2.518 4.27-2.518zm2.345 14.13c.547-1.256.821-2.93.821-5.021 0-2.091-.274-3.76-.821-5.007-.548-1.247-1.329-1.87-2.344-1.87-1.016 0-1.792.623-2.33 1.87-.537 1.247-.806 2.916-.806 5.007 0 2.111.269 3.79.806 5.037.538 1.247 1.314 1.87 2.33 1.87 1.015 0 1.796-.628 2.344-1.885zm6.166-7.977h-2.986c.159 1.006.239 1.99.239 2.956a17 17 0 0 1-.27 3.106h3.017v-6.062zm7.584 18.007h-2.538v-26.362h2.538zM177.556 138.675v-2.172h14.273v2.172h-5.703v.875c0 1.75.636 3.333 1.911 4.75 1.273 1.418 2.717 2.378 4.33 2.88l-1.464 2.142c-1.194-.482-2.378-1.251-3.553-2.307-1.175-1.056-2.02-2.166-2.538-3.333-.399 1.227-1.245 2.453-2.538 3.68-1.295 1.226-2.639 2.131-4.032 2.714l-1.493-2.111c1.792-.643 3.354-1.754 4.688-3.333 1.334-1.578 2.001-3.252 2.001-5.022v-.935h-5.882zm18.648 13.196c1.542.915 2.314 2.167 2.314 3.755 0 1.589-.766 2.835-2.299 3.74-1.533.905-3.703 1.358-6.51 1.358-2.767 0-4.922-.453-6.465-1.358-1.543-.905-2.314-2.151-2.314-3.74 0-1.588.771-2.84 2.314-3.755 1.543-.915 3.698-1.373 6.465-1.373 2.787 0 4.952.458 6.495 1.373zm-6.495.83c-1.91 0-3.404.256-4.479.769-1.075.512-1.613 1.231-1.613 2.156s.538 1.644 1.613 2.157c1.075.512 2.568.769 4.48.769 1.93 0 3.433-.257 4.508-.77 1.075-.512 1.613-1.23 1.613-2.156 0-.925-.538-1.644-1.613-2.156-1.075-.513-2.578-.77-4.509-.77zm6.002-9.502h-4.867v-2.201h4.867v-6.636h2.658v16.348h-2.658z"/></g></svg>