<svg xmlns="http://www.w3.org/2000/svg" xmlns:xlink="http://www.w3.org/1999/xlink" viewBox="0 0 800.1 800"><defs><linearGradient id="linear-gradient" x1="157.688" y1="582.173" x2="157.688" y2="1382.173" gradientTransform="translate(242.362 -582.173)" gradientUnits="userSpaceOnUse"><stop offset="0" stop-color="#18bffb"></stop><stop offset="1" stop-color="#2072f3"></stop></linearGradient></defs><g id="Layer_2"><g id="Layer_1-2"><path d="M638.4,0H161.6A161.535,161.535,0,0,0,0,161.6V638.5A161.514,161.514,0,0,0,161.6,800H638.5A161.6,161.6,0,0,0,800.1,638.4V161.6A161.684,161.684,0,0,0,638.4,0Z" style="fill:url(#linear-gradient)"></path><path d="M396.6,183.8l16.2-28A36.466,36.466,0,1,1,476,192.2L319.9,462.4H432.8c36.6,0,57.1,43,41.2,72.8H143a36.4,36.4,0,1,1,0-72.8h92.8L354.6,256.5l-37.1-64.4a36.466,36.466,0,0,1,63.2-36.4l15.9,28.1ZM256.2,572.7l-35,60.7A36.466,36.466,0,0,1,158,597l26-45c29.4-9.1,53.3-2.1,72.2,20.7ZM557.6,462.6h94.7a36.4,36.4,0,1,1,0,72.8H599.7L635.2,597A36.466,36.466,0,0,1,572,633.4q-89.7-155.55-134.5-233C407,347.8,428.8,295,450.3,277.1q35.85,61.5,107.3,185.5Z" style="fill:#fff"></path></g></g></svg>
