<svg xmlns="http://www.w3.org/2000/svg" width="42" height="13" viewBox="0 0 42 13"><g fill="none" fill-rule="evenodd"><path fill="#1E9BF5" fill-rule="nonzero" d="M40.733 0H29.59l-2.708 6.661L29.59 13h11.143c.479 0 .867-.388.867-.867V.867c0-.479-.388-.867-.867-.867z"></path><path fill="#FFF" fill-rule="nonzero" d="M36.965 5.638L36.965 3.064 35.24 3.064 35.24 5.638 32.667 5.638 32.667 7.362 39.539 7.362 39.539 5.638zM35.249 7.59l-.01 2.346h1.724V8.85c0-.818-.866-1.26-1.714-1.26zM.966.966H12.033V12.033H.966z"></path><path fill="#03C75A" d="M7.58 3.467L7.58 6.499 5.33 3.467 3.467 3.467 3.467 9.532 5.419 9.532 5.419 6.499 7.669 9.532 9.532 9.532 9.532 3.467z"></path><path d="M1.127 1.127H11.872V11.872H1.127z"></path><path d="M1.127 1.127H11.872V11.872H1.127z"></path><path fill="#03C75A" fill-rule="nonzero" d="M0 .867v11.266c0 .479.388.867.867.867H29.59c.41 0 .743-.333.743-.743V.743c0-.41-.332-.743-.743-.743H.867C.388 0 0 .388 0 .867zm1.127 11.005V1.127h10.745v10.745H1.127z"></path><path fill="#FFF" fill-rule="nonzero" d="M14.585 3.125h2.169c.3-.007.601.035.889.124.225.069.433.185.609.341.158.144.28.323.355.523.078.209.117.43.115.654v.167c0 .228-.042.453-.123.666-.08.21-.208.397-.372.55-.18.164-.39.29-.619.371-.278.098-.572.146-.866.14h-1.148v2.211h-1.01V3.125zm1.021.853v1.825h1.012c.276.015.55-.051.79-.19.19-.125.287-.36.287-.694v-.144c.004-.134-.02-.267-.072-.39-.045-.1-.115-.185-.203-.249-.095-.063-.203-.105-.316-.123-.131-.026-.265-.038-.398-.036l-1.1.001zm5.063 4.959c-.473 0-.84-.108-1.1-.324-.265-.223-.41-.558-.39-.905v-.255c-.002-.168.026-.336.083-.495.057-.154.153-.29.279-.396.152-.123.327-.213.516-.264.255-.07.518-.102.781-.096h1.006v-.168c0-.271-.063-.466-.188-.585-.126-.119-.324-.179-.594-.18-.45 0-.887.155-1.238.439l-.495-.733c.238-.163.492-.3.758-.411.314-.127.651-.188.99-.18.24-.002.479.03.71.095.203.057.393.15.562.277.156.114.284.265.371.438.091.184.137.387.133.593v3.085h-.902l-.016-.54c-.046.1-.116.189-.203.258-.095.078-.2.143-.314.19-.12.052-.244.09-.372.117-.124.026-.25.04-.377.04zm1.172-1.954h-.98c-.267 0-.451.05-.555.152-.106.108-.162.255-.155.406v.096c-.006.13.051.255.154.335.13.09.288.133.447.124.408 0 .711-.098.908-.295.084-.077.14-.179.159-.29.018-.134.026-.269.025-.403l-.003-.125zm2.68-2.504l.99 3.245h.032l1.004-3.245h1.069L25.34 10.7l-.94-.327.566-1.443L23.4 4.48h1.12z"></path></g></svg>