<svg xmlns="http://www.w3.org/2000/svg" width="31" height="13" viewBox="0 0 31 13"><g fill="none"><path fill="#FFF" d="M0.966 0.966H12.035V12.035H0.966z"></path><path fill="#03C75A" d="M29.467 0H.867C.388 0 0 .388 0 .867v11.266c0 .479.388.867.867.867h28.6c.478 0 .866-.388.866-.867V.867c0-.479-.388-.867-.866-.867zM11.873 11.873H1.127V1.127h10.746v10.746z"></path><path fill="#03C75A" d="M7.581 3.467L7.581 6.5 5.331 3.467 3.467 3.467 3.467 9.533 5.419 9.533 5.419 6.5 7.669 9.533 9.533 9.533 9.533 3.467z"></path><path fill="#FFF" d="M14.587 3.125h2.17c.3-.006.6.036.888.124.225.07.433.186.61.341.158.144.28.323.355.523.078.209.117.43.115.654v.167c0 .228-.042.453-.124.666-.08.209-.208.397-.371.55-.18.163-.39.29-.62.371-.277.098-.571.146-.866.14h-1.149v2.212h-1.02l.012-5.748zm1.02.853v1.826h1.013c.277.016.552-.051.79-.192.19-.124.287-.358.287-.693v-.144c.005-.133-.02-.266-.071-.39-.046-.099-.116-.184-.205-.247-.095-.063-.202-.105-.314-.124-.132-.025-.265-.037-.399-.036h-1.1zm5.07 4.96c-.474 0-.84-.108-1.1-.323-.265-.224-.41-.56-.391-.905v-.255c-.002-.17.027-.337.084-.496.055-.154.15-.29.273-.397.152-.123.327-.212.514-.264.255-.069.518-.1.781-.095h1.004v-.167c0-.271-.062-.467-.186-.587-.125-.12-.323-.18-.595-.178-.453-.002-.892.153-1.244.438l-.495-.734c.238-.162.492-.3.757-.41.544-.206 1.138-.236 1.7-.084.202.056.392.15.561.275.324.242.509.628.495 1.032v3.085h-.896l-.016-.54c-.047.1-.116.189-.203.258-.095.079-.201.143-.315.19-.12.052-.244.09-.371.117-.118.025-.238.038-.358.04zm1.172-1.954h-.98c-.267 0-.452.05-.556.152-.105.108-.161.255-.154.406v.096c-.008.128.047.253.146.335.13.09.288.134.447.124.408 0 .711-.098.908-.295.084-.077.14-.179.16-.29.018-.134.026-.268.024-.403l.005-.125zm2.68-2.503l.99 3.245h.032l1.005-3.245h1.068L25.345 10.7l-.94-.327.565-1.443-1.563-4.45h1.122z"></path></g></svg>